<svg width="130" height="40" viewBox="0 0 130 40" fill="none" xmlns="http://www.w3.org/2000/svg">
<path d="M34.3054 21.0308C34.2604 16.095 38.3485 13.7234 38.5327 13.6069C36.2326 10.2491 32.6567 9.79183 31.3808 9.73804C28.3395 9.42871 25.4419 11.5268 23.8966 11.5268C22.3512 11.5268 19.9702 9.78287 17.4455 9.83218C14.1257 9.88149 11.0664 11.7554 9.35476 14.7232C5.90912 20.6856 8.47426 29.5306 11.8345 34.3768C13.4788 36.7438 15.4329 39.4112 18.0071 39.3126C20.4868 39.2139 21.4213 37.7121 24.4132 37.7121C27.4051 37.7121 28.2497 39.3126 30.8642 39.2633C33.5282 39.2095 35.2173 36.8424 36.848 34.4664C38.7303 31.7183 39.5075 29.0554 39.5525 28.9164C39.494 28.894 34.3593 26.9304 34.3054 21.0308Z" fill="white"/>
<path d="M29.3864 6.53299C30.7514 4.88326 31.6722 2.58704 31.4209 0.301636C29.4536 0.382717 27.0724 1.60974 25.6619 3.26055C24.3998 4.71785 23.2786 7.05299 23.5906 9.29515C25.7789 9.46596 28.0214 8.17839 29.3864 6.53407" fill="white"/>
<path d="M51.5514 25.8854L49.2764 32.7308H46.3774L53.7853 10.9686H57.1815L64.6208 32.7308H61.6091L59.2778 25.8854H51.5514ZM58.7036 23.6886L56.5694 17.4259C56.0841 16.0043 55.7613 14.7124 55.4374 13.454H55.3745L54.2749 17.4054L52.1408 23.6994L58.7036 23.6886Z" fill="white"/>
<path d="M66.8253 22.2054L66.6953 17.1027H69.252L69.382 19.7837H69.4448C70.6083 17.8789 72.4543 16.7492 75.011 16.7492C78.7983 16.7492 81.641 19.9459 81.641 24.6929C81.641 30.3102 78.2133 33.0854 74.5235 33.0854C72.4521 33.0854 70.6419 32.1794 69.7027 30.6335H69.6398V39.1351H66.8231L66.8253 22.2054ZM69.6376 26.3697C69.6376 26.8021 69.7005 27.1762 69.7676 27.5308C70.2844 29.4983 71.9993 30.8573 74.0403 30.8573C77.0498 30.8573 78.807 28.4054 78.807 24.8183C78.807 21.6832 77.1581 19.0086 74.1486 19.0086C72.1986 19.0086 70.3971 20.3989 69.8446 22.5275C69.7254 22.9035 69.6604 23.2944 69.6517 23.6886V26.3697H69.6376ZM84.5844 22.2054L84.4544 17.1027H87.0111L87.1411 19.7837H87.2039C88.3674 17.8789 90.2134 16.7492 92.7701 16.7492C96.5574 16.7492 99.4001 19.9459 99.4001 24.6929C99.4001 30.3102 95.9724 33.0854 92.2826 33.0854C90.2112 33.0854 88.401 32.1794 87.4617 30.6335H87.3989V39.1351H84.5822L84.5844 22.2054ZM87.4011 26.3697C87.4011 26.8021 87.4639 27.1762 87.5311 27.5308C88.0478 29.4983 89.7627 30.8573 91.8037 30.8573C94.8132 30.8573 96.5704 28.4054 96.5704 24.8183C96.5704 21.6832 94.9216 19.0086 91.9121 19.0086C89.9621 19.0086 88.1605 20.3989 87.608 22.5275C87.4888 22.9035 87.4238 23.2944 87.4151 23.6886V26.3697H87.4011ZM102.347 9.80969H105.196V32.7319H102.347V9.80969ZM110.918 25.4335C110.981 29.2756 113.442 30.8583 116.286 30.8583C118.326 30.8583 119.552 30.5037 120.621 30.0519L121.107 32.0875C120.105 32.5416 118.398 33.0562 115.9 33.0562C111.079 33.0562 108.2 29.8908 108.2 25.1794C108.2 20.4681 110.981 16.7513 115.545 16.7513C120.658 16.7513 122.012 21.2378 122.012 24.1027C122.012 24.6864 121.95 25.134 121.904 25.4248L110.918 25.4335ZM119.265 23.3978C119.298 21.5924 118.52 18.7816 115.316 18.7816C112.437 18.7816 111.175 21.4302 110.951 23.3978H119.265Z" fill="white"/>
</svg>
