<svg width="155" height="38" viewBox="0 0 155 38" fill="none" xmlns="http://www.w3.org/2000/svg">
<path fill-rule="evenodd" clip-rule="evenodd" d="M10.5544 1.74921C7.60646 2.69511 5.04091 3.62167 4.8535 3.80857C4.62972 4.03174 4.68826 4.32401 5.02324 4.65809C5.47358 5.10686 6.20486 4.95692 11.1804 3.39677L16.827 1.62622L22.7136 3.47657C27.4872 4.9773 28.6553 5.23744 28.8936 4.85293C29.0551 4.59245 29.1198 4.20344 29.0374 3.98925C28.8673 3.54739 17.6729 -0.044833 16.6073 0.000423958C16.2263 0.0166612 13.5024 0.803648 10.5544 1.74921ZM0.228519 5.4392C0.0913383 5.77155 -0.010854 8.22026 0.000924092 10.8804C0.0182448 14.7628 0.177249 16.2964 0.807031 18.6535C2.36416 24.4782 5.28098 29.3798 9.51867 33.2926C11.7212 35.326 15.9045 38 16.8838 38C18.0308 38 22.5459 34.7553 25.2677 31.9753C30.9288 26.1931 33.8245 18.7375 33.714 10.2306C33.6603 6.10458 33.4164 5.00736 32.5532 5.00736C32.0148 5.00736 31.2357 6.37474 28.7145 11.7441L25.5511 18.4808L17.0137 18.573L8.47596 18.6656L5.00558 11.75C1.60171 4.96728 0.838208 3.9585 0.228519 5.4392ZM14.6834 34.9985C14.7239 35.6028 11.3706 32.8552 8.98831 30.3322C4.47937 25.5571 1.9987 19.5362 1.68519 12.6078L1.51337 8.80756L8.08901 21.7628C11.7056 28.8882 14.673 34.8441 14.6834 34.9985ZM31.9275 12.5214C31.5222 19.8993 28.4745 26.7355 23.4802 31.4709C21.5649 33.2864 19.2055 35.088 19.2055 34.7342C19.2055 34.603 21.4426 30.1149 24.1765 24.7608C26.9108 19.4067 29.7555 13.6673 30.4986 12.0063C31.2416 10.3456 31.9109 8.98513 31.9861 8.9834C32.0609 8.98168 32.0346 10.5736 31.9275 12.5214ZM65.625 18.999V26.2539H71.8605H78.0959V25.3902V24.5266H72.7265H67.3571V22.281V20.0354H71.7101H76.0635L75.9537 19.0854L75.8443 18.1353L71.6007 18.0382L67.3571 17.9412V15.879V13.8169H72.7265H78.0959V12.7805V11.7441H71.8605H65.625V18.999ZM86.9195 12.1638C86.8211 12.4191 86.7833 15.6552 86.8353 19.3545C86.9288 26.0349 86.9347 26.0819 87.709 26.1917C88.4603 26.2981 88.4884 26.2045 88.4884 23.5979V20.8939L91.3463 20.9996L94.2042 21.105L95.5899 22.707C96.352 23.5883 97.3691 24.7605 97.8496 25.3122C98.5064 26.0653 98.9678 26.2857 99.7043 26.198L100.685 26.0812L98.7475 23.6629L96.8103 21.2446L98.0879 20.9765C100.332 20.506 100.613 19.9967 100.613 16.408C100.613 11.856 100.759 11.9458 93.1272 11.808C88.3221 11.7216 87.0618 11.7938 86.9195 12.1638ZM108.927 12.7732V13.8169H111.871H114.816V20.0354V26.2539H115.682H116.548V20.0489V13.8439L119.579 13.744C122.555 13.6459 122.61 13.6283 122.61 12.7805V11.9168L115.769 11.8232L108.927 11.7296V12.7732ZM130.982 11.9745C130.855 12.101 130.751 15.3657 130.751 19.2294V26.2539H131.617H132.483V18.999C132.483 12.1942 132.444 11.7441 131.848 11.7441C131.499 11.7441 131.109 11.8477 130.982 11.9745ZM142.067 11.9745C141.94 12.101 141.836 15.3657 141.836 19.2294V26.2539H142.702C143.562 26.2539 143.568 26.2308 143.568 23.1447V20.0354H145.763H147.957L150.478 23.1447C152.621 25.7889 153.15 26.2539 154.019 26.2539C155.249 26.2539 155.311 26.3742 151.945 22.1877L149.371 18.9852L152.185 15.5557C153.734 13.6694 155 12.0398 155 11.9351C155 11.8301 154.565 11.7441 154.034 11.7441C153.234 11.7441 152.625 12.2913 150.477 14.9397L147.885 18.1353L145.726 18.2383L143.568 18.3409V15.0427C143.568 12.0743 143.505 11.7441 142.933 11.7441C142.584 11.7441 142.194 11.8477 142.067 11.9745ZM43.6814 12.7214C42.8496 13.6376 42.8244 24.5397 43.6519 25.365C44.4896 26.2004 45.2887 26.2861 51.2488 26.18C56.6806 26.0833 56.7935 26.066 56.9009 25.3122C57.0104 24.5456 56.9917 24.5428 51.0119 24.4485L45.0133 24.3538L44.9177 19.0937L44.8221 13.8332L50.8068 13.7388C56.7166 13.6452 56.7928 13.6345 56.9023 12.8669L57.0128 12.0896H50.6339C44.8938 12.0896 44.1972 12.1528 43.6814 12.7214ZM98.8808 16.4173V19.0173L93.7712 18.922L88.6616 18.8263L88.5563 16.7921C88.4984 15.6735 88.5324 14.5462 88.6322 14.2874C88.7731 13.9202 89.9187 13.8169 93.8471 13.8169H98.8808V16.4173ZM24.3438 20.7222C24.0393 21.6225 16.9288 35.2224 16.7594 35.2286C16.6063 35.2345 10.0307 21.9514 9.5637 20.6922C9.49719 20.5136 12.6468 20.3809 16.9538 20.3809C21.7436 20.3809 24.4176 20.5042 24.3438 20.7222Z" fill="white"/>
</svg>
