<svg width="169" height="41" viewBox="0 0 169 41" fill="none" xmlns="http://www.w3.org/2000/svg">
<path d="M12.5 0L0 21L12.5 28.5L25 21L12.5 0ZM0 23.5L12.5 41L25 23.5L12.5 31L0 23.5Z" fill="white"/>
<path d="M36.852 14.12V19.02H43.432V22.128H36.852V27.308H44.272V30.5H32.932V10.928H44.272V14.12H36.852ZM52.3871 18.208V25.712C52.3871 26.2347 52.5085 26.6173 52.7511 26.86C53.0125 27.084 53.4418 27.196 54.0391 27.196H55.8591V30.5H53.3951C50.0911 30.5 48.4391 28.8947 48.4391 25.684V18.208H46.5911V14.988H48.4391V11.152H52.3871V14.988H55.8591V18.208H52.3871ZM67.4034 14.764C68.5794 14.764 69.6247 15.0253 70.5394 15.548C71.4541 16.052 72.1634 16.808 72.6674 17.816C73.1901 18.8053 73.4514 20 73.4514 21.4V30.5H69.5314V21.932C69.5314 20.7 69.2234 19.7573 68.6074 19.104C67.9914 18.432 67.1514 18.096 66.0874 18.096C65.0047 18.096 64.1461 18.432 63.5114 19.104C62.8954 19.7573 62.5874 20.7 62.5874 21.932V30.5H58.6674V9.78H62.5874V16.92C63.0914 16.248 63.7634 15.7253 64.6034 15.352C65.4434 14.96 66.3767 14.764 67.4034 14.764ZM91.5879 22.408C91.5879 22.968 91.5506 23.472 91.4759 23.92H80.1359C80.2293 25.04 80.6213 25.9173 81.3119 26.552C82.0026 27.1867 82.8519 27.504 83.8599 27.504C85.3159 27.504 86.3519 26.8787 86.9679 25.628H91.1959C90.7479 27.1213 89.8893 28.3533 88.6199 29.324C87.3506 30.276 85.7919 30.752 83.9439 30.752C82.4506 30.752 81.1066 30.4253 79.9119 29.772C78.7359 29.1 77.8119 28.1573 77.1399 26.944C76.4866 25.7307 76.1599 24.3307 76.1599 22.744C76.1599 21.1387 76.4866 19.7293 77.1399 18.516C77.7933 17.3027 78.7079 16.3693 79.8839 15.716C81.0599 15.0627 82.4133 14.736 83.9439 14.736C85.4186 14.736 86.7346 15.0533 87.8919 15.688C89.0679 16.3227 89.9733 17.228 90.6079 18.404C91.2613 19.5613 91.5879 20.896 91.5879 22.408ZM87.5279 21.288C87.5093 20.28 87.1453 19.4773 86.4359 18.88C85.7266 18.264 84.8586 17.956 83.8319 17.956C82.8613 17.956 82.0399 18.2547 81.3679 18.852C80.7146 19.4307 80.3133 20.2427 80.1639 21.288H87.5279ZM98.358 17.396C98.862 16.5747 99.5153 15.9307 100.318 15.464C101.139 14.9973 102.073 14.764 103.118 14.764V18.88H102.082C100.85 18.88 99.9166 19.1693 99.282 19.748C98.666 20.3267 98.358 21.3347 98.358 22.772V30.5H94.438V14.988H98.358V17.396ZM120.167 22.408C120.167 22.968 120.13 23.472 120.055 23.92H108.715C108.808 25.04 109.2 25.9173 109.891 26.552C110.582 27.1867 111.431 27.504 112.439 27.504C113.895 27.504 114.931 26.8787 115.547 25.628H119.775C119.327 27.1213 118.468 28.3533 117.199 29.324C115.93 30.276 114.371 30.752 112.523 30.752C111.03 30.752 109.686 30.4253 108.491 29.772C107.315 29.1 106.391 28.1573 105.719 26.944C105.066 25.7307 104.739 24.3307 104.739 22.744C104.739 21.1387 105.066 19.7293 105.719 18.516C106.372 17.3027 107.287 16.3693 108.463 15.716C109.639 15.0627 110.992 14.736 112.523 14.736C113.998 14.736 115.314 15.0533 116.471 15.688C117.647 16.3227 118.552 17.228 119.187 18.404C119.84 19.5613 120.167 20.896 120.167 22.408ZM116.107 21.288C116.088 20.28 115.724 19.4773 115.015 18.88C114.306 18.264 113.438 17.956 112.411 17.956C111.44 17.956 110.619 18.2547 109.947 18.852C109.294 19.4307 108.892 20.2427 108.743 21.288H116.107ZM137.661 14.988V30.5H133.713V28.54C133.209 29.212 132.546 29.744 131.725 30.136C130.922 30.5093 130.045 30.696 129.093 30.696C127.88 30.696 126.806 30.444 125.873 29.94C124.94 29.4173 124.202 28.6613 123.661 27.672C123.138 26.664 122.877 25.4693 122.877 24.088V14.988H126.797V23.528C126.797 24.76 127.105 25.712 127.721 26.384C128.337 27.0373 129.177 27.364 130.241 27.364C131.324 27.364 132.173 27.0373 132.789 26.384C133.405 25.712 133.713 24.76 133.713 23.528V14.988H137.661ZM160.782 14.764C162.686 14.764 164.216 15.352 165.374 16.528C166.55 17.6853 167.138 19.3093 167.138 21.4V30.5H163.218V21.932C163.218 20.7187 162.91 19.7947 162.294 19.16C161.678 18.5067 160.838 18.18 159.774 18.18C158.71 18.18 157.86 18.5067 157.226 19.16C156.61 19.7947 156.302 20.7187 156.302 21.932V30.5H152.382V21.932C152.382 20.7187 152.074 19.7947 151.458 19.16C150.842 18.5067 150.002 18.18 148.938 18.18C147.855 18.18 146.996 18.5067 146.362 19.16C145.746 19.7947 145.438 20.7187 145.438 21.932V30.5H141.518V14.988H145.438V16.864C145.942 16.2107 146.586 15.6973 147.37 15.324C148.172 14.9507 149.05 14.764 150.002 14.764C151.215 14.764 152.298 15.0253 153.25 15.548C154.202 16.052 154.939 16.78 155.462 17.732C155.966 16.836 156.694 16.1173 157.646 15.576C158.616 15.0347 159.662 14.764 160.782 14.764Z" fill="white"/>
</svg>
