<svg width="132" height="40" viewBox="0 0 132 40" fill="none" xmlns="http://www.w3.org/2000/svg">
<path d="M35.6148 14.5829H21.8428V18.7006H31.6108C31.1268 24.4641 26.3605 26.938 21.8593 26.938C20.4333 26.9443 19.0204 26.6643 17.703 26.1144C16.3856 25.5645 15.1902 24.7556 14.1864 23.735C13.1827 22.7144 12.3907 21.5026 11.8569 20.1703C11.323 18.8379 11.058 17.4118 11.0771 15.9751C11.0771 9.74156 15.8665 4.9423 21.8725 4.9423C26.5057 4.9423 29.2359 7.91829 29.2359 7.91829L32.0959 4.93233C32.0959 4.93233 28.4219 0.8125 21.7229 0.8125C13.1924 0.8125 6.59351 8.06681 6.59351 15.9019C6.59351 23.5796 12.8008 31.0667 21.9385 31.0667C29.9762 31.0667 35.8601 25.5182 35.8601 17.314C35.8601 15.5827 35.6104 14.5829 35.6104 14.5829H35.6148Z" fill="white"/>
<path d="M46.8973 11.6004C41.2455 11.6004 37.1953 16.0527 37.1953 21.2432C37.1953 26.5124 41.1223 31.0468 46.9633 31.0468C52.2499 31.0468 56.5806 26.9757 56.5806 21.3563C56.5806 14.9277 51.5426 11.5992 46.8973 11.5992V11.6004ZM46.9523 15.4198C49.7309 15.4198 52.3643 17.6842 52.3643 21.3319C52.3643 24.9008 49.7419 27.2306 46.9391 27.2306C43.8591 27.2306 41.4391 24.7457 41.4391 21.3031C41.4391 17.9336 43.8371 15.4198 46.9611 15.4198H46.9523Z" fill="white"/>
<path d="M67.9964 11.6004C62.3446 11.6004 58.2944 16.0527 58.2944 21.2432C58.2944 26.5124 62.2214 31.0468 68.0624 31.0468C73.349 31.0468 77.6797 26.9757 77.6797 21.3563C77.6797 14.9277 72.6417 11.5992 67.9964 11.5992V11.6004ZM68.0514 15.4198C70.83 15.4198 73.4634 17.6842 73.4634 21.3319C73.4634 24.9008 70.841 27.2306 68.0382 27.2306C64.9582 27.2306 62.5382 24.7457 62.5382 21.3031C62.5382 17.9336 64.9362 15.4198 68.0602 15.4198H68.0514Z" fill="white"/>
<path d="M88.691 11.6115C83.5034 11.6115 79.4268 16.189 79.4268 21.3275C79.4268 27.1797 84.1535 31.0612 88.6008 31.0612C91.3508 31.0612 92.8138 29.9606 93.8808 28.6982V30.6156C93.8808 33.9707 91.859 35.9802 88.8076 35.9802C85.8596 35.9802 84.3812 33.7712 83.8576 32.5187L80.1484 34.0704C81.464 36.8746 84.1128 39.7974 88.8384 39.7974C94.0084 39.7974 97.9266 36.5244 97.9266 29.6591V12.1956H93.8962V13.8426C92.6532 12.4904 90.9504 11.6115 88.6932 11.6115H88.691ZM89.065 15.4243C91.6082 15.4243 94.2196 17.6122 94.2196 21.3485C94.2196 25.1469 91.6126 27.2395 89.0089 27.2395C86.2435 27.2395 83.6706 24.9784 83.6706 21.384C83.6706 17.651 86.3436 15.4243 89.065 15.4243Z" fill="white"/>
<path d="M115.94 11.5881C111.047 11.5881 106.939 15.5118 106.939 21.2975C106.939 27.4224 111.518 31.0545 116.399 31.0545C120.482 31.0545 122.999 28.8045 124.484 26.7873L121.147 24.5506C120.282 25.9028 118.834 27.2273 116.42 27.2273C113.707 27.2273 112.46 25.731 111.686 24.279L124.626 18.8702L123.966 17.2852C122.716 14.1817 119.799 11.5881 115.94 11.5881ZM116.108 15.3278C117.872 15.3278 119.14 16.2721 119.679 17.4049L111.037 21.0437C110.663 18.2262 113.314 15.3278 116.097 15.3278H116.108Z" fill="white"/>
<path d="M100.76 30.4782H105.01V1.81897H100.76V30.4782Z" fill="white"/>
</svg>
