<svg width="120" height="40" viewBox="0 0 120 40" fill="none" xmlns="http://www.w3.org/2000/svg">
<g clip-path="url(#clip0_74_115)">
<path d="M105.22 21.4436C105.22 23.9498 103.505 25.7894 101.145 25.7894C98.825 25.7894 97.01 23.8847 97.01 21.4436C97.01 18.8872 98.725 17.0927 101.085 17.0927C103.405 17.0927 105.22 19.0025 105.22 21.4436ZM33.695 16.8321C33.0695 16.8106 32.4478 16.9389 31.8817 17.2066C31.3156 17.4742 30.8214 17.8734 30.44 18.3709C29.6758 19.4411 29.3665 20.7715 29.58 22.0702L36.975 18.9925C36.701 18.3491 36.2435 17.8013 35.6599 17.4178C35.0764 17.0343 34.3928 16.8323 33.695 16.8371V16.8321ZM68.51 17.0927C66.15 17.0927 64.43 18.8872 64.43 21.4436C64.43 23.8797 66.25 25.7894 68.57 25.7894C70.93 25.7894 72.645 23.9448 72.645 21.4436C72.645 19.0025 70.83 17.0927 68.51 17.0927ZM120 -0.0651855V40.0651H0V-0.0651855H120ZM25.05 25.2631H15.44V9.09772H11.15V29.1629H25.05V25.2631ZM30.735 24.792L41.55 20.2957C41.3568 18.7111 40.7148 17.2152 39.7 15.9849C38.28 14.3308 36.18 13.4536 33.62 13.4536C28.965 13.4536 25.455 16.8922 25.455 21.4386C25.455 26.1002 28.975 29.4235 34.085 29.4235C36.945 29.4235 39.875 28.0601 41.245 26.4712L38.57 24.411C36.785 25.7343 35.77 26.0451 34.145 26.0451C32.685 26.0451 31.545 25.594 30.735 24.792ZM58.585 19.5839C58.585 16.03 56.05 13.4536 52.325 13.4536C51.355 13.4576 50.3986 13.6826 49.528 14.1116C48.6575 14.5405 47.8956 15.1623 47.3 15.9298V13.7143H43.07V29.1579H47.3V20.3709C47.3 18.7869 48.525 17.1077 50.79 17.1077C52.54 17.1077 54.35 18.3258 54.35 20.3709V29.1579H58.585V19.5839ZM76.82 21.4386C76.82 16.9072 73.195 13.4536 68.57 13.4536C63.905 13.4536 60.255 16.9624 60.255 21.4386C60.255 25.9649 63.885 29.4185 68.51 29.4185C73.17 29.4185 76.82 25.9097 76.82 21.4386ZM87.15 29.1579L93.49 13.7143H88.655L84.83 24.2356L81.005 13.7092H76.175L82.515 29.1529L87.15 29.1579ZM109.395 21.4386C109.395 16.9072 105.77 13.4536 101.145 13.4536C96.485 13.4536 92.835 16.9624 92.835 21.4386C92.835 25.9649 96.46 29.4185 101.085 29.4185C105.745 29.4185 109.395 25.9097 109.395 21.4386Z" fill="white"/>
</g>
<defs>
<clipPath id="clip0_74_115">
<rect width="120" height="40" fill="white"/>
</clipPath>
</defs>
</svg>
