<svg width="218" height="40" viewBox="0 0 218 40" fill="none" xmlns="http://www.w3.org/2000/svg">
<path fill-rule="evenodd" clip-rule="evenodd" d="M213.151 32.092V31.4933H213.534C213.742 31.4933 214.027 31.5093 214.027 31.7653C214.027 32.0426 213.881 32.092 213.633 32.092H213.151ZM213.151 32.512H213.406L214 33.5573H214.652L213.995 32.4693C214.334 32.444 214.613 32.2826 214.613 31.824C214.613 31.2546 214.221 31.0706 213.559 31.0706H212.601V33.5573H213.151V32.512ZM215.94 32.3173C215.94 30.8573 214.809 30.0106 213.547 30.0106C212.278 30.0106 211.148 30.8573 211.148 32.3173C211.148 33.7773 212.278 34.628 213.547 34.628C214.807 34.628 215.94 33.7773 215.94 32.3173ZM215.248 32.3173C215.248 33.3813 214.468 34.096 213.547 34.096V34.088C212.599 34.096 211.834 33.3813 211.834 32.3173C211.834 31.2546 212.601 30.5426 213.547 30.5426C214.47 30.5426 215.248 31.2546 215.248 32.3173Z" fill="white"/>
<path fill-rule="evenodd" clip-rule="evenodd" d="M128.107 7.60924L128.109 33.8226H135.49V7.60924H128.107ZM70.0483 7.57458V33.8226H77.4962V13.4479L83.3051 13.4666C85.2153 13.4666 86.5353 13.9266 87.4564 14.9119C88.6249 16.1599 89.1007 18.1706 89.1007 21.8519V33.8226H96.3147V19.3199C96.3147 8.96924 89.7375 7.57324 83.3025 7.57324H70.0497L70.0483 7.57458ZM139.99 7.61058V33.8226H151.962C158.34 33.8226 160.421 32.7586 162.672 30.3732C164.264 28.6986 165.292 25.0212 165.292 21.0039C165.292 17.3199 164.421 14.0332 162.903 11.9866C160.169 8.32658 156.23 7.61058 150.348 7.61058H139.99ZM147.312 13.3172H150.485C155.088 13.3172 158.066 15.3919 158.066 20.7719C158.066 26.1546 155.088 28.2279 150.485 28.2279H147.312V13.3172ZM117.466 7.61058L111.306 28.3839L105.404 7.61191L97.4379 7.61058L105.865 33.8226H116.504L124.999 7.61058H117.466ZM168.727 33.8226H176.108V7.61191L168.724 7.61058L168.727 33.8226ZM189.415 7.61991L179.109 33.8132H186.387L188.018 29.1839H200.214L201.758 33.8132H209.659L199.274 7.61858L189.415 7.61991ZM194.206 12.3999L198.678 24.6719H189.595L194.206 12.3999Z" fill="white"/>
<path fill-rule="evenodd" clip-rule="evenodd" d="M22.45 11.98V8.37329C22.7983 8.34662 23.1519 8.32929 23.5108 8.31729C33.3474 8.00796 39.8009 16.796 39.8009 16.796C39.8009 16.796 32.8303 26.5053 25.3571 26.5053C24.3695 26.5093 23.3871 26.352 22.45 26.0386V15.1C26.2783 15.564 27.0493 17.26 29.3516 21.1106L34.4719 16.78C34.4719 16.78 30.734 11.8626 24.4333 11.8626C23.7487 11.8626 23.0934 11.9106 22.45 11.98ZM22.45 0.0626221V5.45329C22.8023 5.42529 23.1559 5.40262 23.5108 5.38929C37.1889 4.92796 46.1017 16.6426 46.1017 16.6426C46.1017 16.6426 35.8663 29.128 25.2016 29.128C24.2246 29.128 23.3087 29.0373 22.45 28.884V32.2146C23.1851 32.308 23.9468 32.364 24.7417 32.364C34.6647 32.364 41.8414 27.2813 48.7908 21.264C49.9433 22.1893 54.6608 24.4413 55.6299 25.428C49.0221 30.9746 33.6238 35.448 24.8932 35.448C24.077 35.4453 23.2622 35.4026 22.45 35.32V40H60.168V0.0626221H22.45ZM22.45 26.0386V28.884C13.2714 27.244 10.7232 17.672 10.7232 17.672C10.7232 17.672 15.1311 12.7733 22.45 11.98V15.1L22.4354 15.0986C18.5938 14.636 15.5936 18.236 15.5936 18.236C15.5936 18.236 17.2752 24.2946 22.45 26.0386ZM6.14787 17.2573C6.14787 17.2573 11.5872 9.20396 22.45 8.37329V5.45062C10.4188 6.41995 0 16.64 0 16.64C0 16.64 5.90062 33.7506 22.45 35.3173V32.2146C10.3058 30.6826 6.14787 17.2573 6.14787 17.2573Z" fill="white"/>
</svg>
