<svg width="154" height="40" viewBox="0 0 154 40" fill="none" xmlns="http://www.w3.org/2000/svg">
<mask id="mask0_74_133" style="mask-type:luminance" maskUnits="userSpaceOnUse" x="0" y="0" width="40" height="40">
<path d="M39.9603 0.0662842H0V39.9338H39.9603V0.0662842Z" fill="white"/>
</mask>
<g mask="url(#mask0_74_133)">
<path d="M20.1533 0.0665064C8.98106 -0.0265178 -0.093261 9.02673 -2.02452e-05 20.1731C0.0932205 30.997 8.95775 39.841 19.8036 39.9307C30.9759 40.0271 40.0536 30.9705 39.957 19.8242C39.867 9.00349 31.0026 0.15953 20.1533 0.0665064ZM14.1793 9.98688C15.458 11.6082 16.2239 13.6581 16.2239 15.8839C16.2239 17.8109 15.6511 19.605 14.6655 21.1032H7.73896L14.1793 9.98688ZM35.2983 23.5651C35.2983 23.6581 35.2483 23.7378 35.1618 23.7744C34.6922 23.9737 33.1437 24.6913 32.4977 25.5851C30.836 27.8941 29.5673 31.5221 26.7302 31.5221H14.8918C10.6994 31.5221 7.19284 28.203 7.19618 23.781C7.19618 23.6715 7.28941 23.5817 7.3993 23.5817H13.0104C13.2035 23.5817 13.3567 23.7378 13.3567 23.9272V25.007C13.3567 25.5818 13.823 26.0468 14.399 26.0468H18.6549V23.575H15.7477C17.4194 21.4621 18.4151 18.7942 18.4151 15.8905C18.4151 12.6514 17.1695 9.69785 15.1316 7.48851C16.3637 7.63137 17.5426 7.87722 18.6549 8.20281V7.51509C18.6549 6.8008 19.2342 6.22272 19.9502 6.22272C20.6661 6.22272 21.2455 6.8008 21.2455 7.51509V9.17292C25.2183 11.0234 27.819 14.0932 27.819 17.565C27.819 19.6017 26.9266 21.4986 25.3848 23.0933C25.0885 23.399 24.6788 23.5717 24.2493 23.5717H21.2455V26.0402H25.0152C25.8277 26.0402 27.2863 24.5019 27.9789 23.575C27.9789 23.575 28.0089 23.5285 28.0888 23.5052C28.1687 23.4821 35.0119 21.914 35.0119 21.914C35.155 21.8741 35.2983 21.9836 35.2983 22.1299V23.5651Z" fill="white"/>
</g>
<path d="M56.1894 28.6502C54.6087 28.6502 53.157 28.28 51.8343 27.5398C50.5116 26.7995 49.4632 25.7776 48.689 24.4741C47.9147 23.1545 47.5276 21.666 47.5276 20.0084C47.5276 18.3669 47.9147 16.8945 48.689 15.5909C49.4632 14.2713 50.5116 13.2414 51.8343 12.5011C53.157 11.7609 54.6087 11.3907 56.1894 11.3907C57.7864 11.3907 59.2381 11.7609 60.5446 12.5011C61.8672 13.2414 62.9077 14.2713 63.6659 15.5909C64.4401 16.8945 64.8272 18.3669 64.8272 20.0084C64.8272 21.666 64.4401 23.1545 63.6659 24.4741C62.9077 25.7776 61.8672 26.7995 60.5446 27.5398C59.2219 28.28 57.7702 28.6502 56.1894 28.6502ZM56.1894 25.6327C57.2057 25.6327 58.1009 25.4074 58.8751 24.9568C59.6494 24.4902 60.2542 23.8303 60.6898 22.9775C61.1253 22.1245 61.3431 21.1349 61.3431 20.0084C61.3431 18.8819 61.1253 17.9003 60.6898 17.0635C60.2542 16.2105 59.6494 15.5587 58.8751 15.1081C58.1009 14.6575 57.2057 14.4322 56.1894 14.4322C55.1733 14.4322 54.27 14.6575 53.4796 15.1081C52.7053 15.5587 52.1005 16.2105 51.665 17.0635C51.2294 17.9003 51.0117 18.8819 51.0117 20.0084C51.0117 21.1349 51.2294 22.1245 51.665 22.9775C52.1005 23.8303 52.7053 24.4902 53.4796 24.9568C54.27 25.4074 55.1733 25.6327 56.1894 25.6327Z" fill="white"/>
<path d="M69.7667 17.0392C70.2023 16.4277 70.7991 15.9208 71.5572 15.5186C72.3315 15.1001 73.2105 14.8909 74.1945 14.8909C75.3397 14.8909 76.372 15.1725 77.2915 15.7358C78.227 16.2989 78.9609 17.1036 79.4933 18.1497C80.0417 19.1796 80.3159 20.3786 80.3159 21.7464C80.3159 23.1143 80.0417 24.3293 79.4933 25.3914C78.9609 26.4374 78.227 27.2501 77.2915 27.8294C76.372 28.4087 75.3397 28.6984 74.1945 28.6984C73.2105 28.6984 72.3395 28.4972 71.5814 28.095C70.8394 27.6926 70.2346 27.1857 69.7667 26.5742V34.8539H66.3794V15.1081H69.7667V17.0392ZM76.8559 21.7464C76.8559 20.9417 76.6866 20.2498 76.3478 19.6705C76.0252 19.075 75.5898 18.6244 75.0414 18.3187C74.509 18.0129 73.9283 17.86 73.2993 17.86C72.6864 17.86 72.1057 18.0209 71.5572 18.3428C71.0249 18.6485 70.5894 19.0991 70.2506 19.6946C69.928 20.2899 69.7667 20.9901 69.7667 21.7947C69.7667 22.5993 69.928 23.2993 70.2506 23.8947C70.5894 24.4902 71.0249 24.9489 71.5572 25.2707C72.1057 25.5764 72.6864 25.7293 73.2993 25.7293C73.9283 25.7293 74.509 25.5684 75.0414 25.2465C75.5898 24.9246 76.0252 24.4661 76.3478 23.8706C76.6866 23.2752 76.8559 22.5672 76.8559 21.7464Z" fill="white"/>
<path d="M94.996 21.505C94.996 21.9878 94.9638 22.4223 94.8993 22.8085H85.1002C85.1809 23.774 85.5196 24.5305 86.1165 25.0776C86.7132 25.6248 87.4471 25.8983 88.3181 25.8983C89.5763 25.8983 90.4716 25.3592 91.0038 24.2809H94.6574C94.2702 25.5684 93.5283 26.6305 92.4314 27.4673C91.3346 28.2881 89.9877 28.6984 88.3908 28.6984C87.1003 28.6984 85.939 28.4168 84.9067 27.8535C83.8905 27.2742 83.092 26.4616 82.5113 25.4155C81.9468 24.3695 81.6646 23.1625 81.6646 21.7947C81.6646 20.4107 81.9468 19.1956 82.5113 18.1497C83.0759 17.1036 83.8662 16.2989 84.8825 15.7358C85.8986 15.1725 87.0681 14.8909 88.3908 14.8909C89.6651 14.8909 90.8022 15.1645 91.8023 15.7117C92.8185 16.2588 93.6009 17.0392 94.1493 18.0531C94.7138 19.0509 94.996 20.2015 94.996 21.505ZM91.4878 20.5395C91.4717 19.6705 91.1571 18.9784 90.5441 18.4635C89.9312 17.9325 89.1812 17.6669 88.294 17.6669C87.4552 17.6669 86.7455 17.9244 86.1648 18.4393C85.6003 18.9382 85.2534 19.6383 85.1244 20.5395H91.4878Z" fill="white"/>
<path d="M104.171 14.9149C105.767 14.9149 107.058 15.4219 108.042 16.4357C109.026 17.4335 109.518 18.8336 109.518 20.636V28.4811H106.13V21.0945C106.13 20.0324 105.864 19.2198 105.332 18.6565C104.8 18.0772 104.074 17.7875 103.154 17.7875C102.219 17.7875 101.477 18.0772 100.928 18.6565C100.396 19.2198 100.13 20.0324 100.13 21.0945V28.4811H96.7427V15.108H100.13V16.7737C100.582 16.1944 101.154 15.7438 101.848 15.4219C102.558 15.0839 103.332 14.9149 104.171 14.9149Z" fill="white"/>
<path d="M117.36 28.6502C116.183 28.6502 115.118 28.449 114.166 28.0466C113.231 27.6444 112.489 27.0651 111.94 26.3086C111.392 25.5523 111.11 24.6592 111.094 23.6293H114.723C114.771 24.3212 115.013 24.8684 115.449 25.2707C115.9 25.673 116.513 25.8742 117.287 25.8742C118.078 25.8742 118.699 25.6892 119.15 25.319C119.602 24.9327 119.828 24.4339 119.828 23.8224C119.828 23.3235 119.675 22.9131 119.368 22.5913C119.062 22.2694 118.675 22.02 118.207 21.8429C117.755 21.6498 117.126 21.4407 116.32 21.2154C115.223 20.8935 114.328 20.5796 113.634 20.2739C112.957 19.9521 112.368 19.4774 111.868 18.8497C111.384 18.206 111.142 17.3531 111.142 16.291C111.142 15.2933 111.392 14.4243 111.892 13.684C112.392 12.9437 113.094 12.3804 113.997 11.9942C114.9 11.5919 115.933 11.3907 117.094 11.3907C118.836 11.3907 120.247 11.8172 121.328 12.6701C122.425 13.5069 123.03 14.6817 123.143 16.1945H119.417C119.384 15.6151 119.134 15.1403 118.667 14.7702C118.215 14.384 117.61 14.1909 116.852 14.1909C116.191 14.1909 115.658 14.3599 115.255 14.6978C114.868 15.0358 114.674 15.5265 114.674 16.1702C114.674 16.6208 114.82 16.9991 115.11 17.3048C115.416 17.5945 115.787 17.8359 116.223 18.029C116.675 18.206 117.304 18.4153 118.11 18.6566C119.207 18.9784 120.102 19.3003 120.796 19.6221C121.489 19.944 122.086 20.4268 122.586 21.0705C123.086 21.7142 123.336 22.5591 123.336 23.6051C123.336 24.5062 123.102 25.3431 122.635 26.1155C122.167 26.888 121.481 27.5076 120.578 27.9743C119.675 28.4249 118.602 28.6502 117.36 28.6502Z" fill="white"/>
<path d="M137.766 21.505C137.766 21.9878 137.733 22.4223 137.669 22.8085H127.87C127.951 23.774 128.289 24.5305 128.886 25.0776C129.483 25.6248 130.217 25.8983 131.088 25.8983C132.346 25.8983 133.242 25.3592 133.774 24.2809H137.428C137.04 25.5684 136.298 26.6305 135.201 27.4673C134.105 28.2881 132.757 28.6984 131.161 28.6984C129.87 28.6984 128.709 28.4168 127.677 27.8535C126.66 27.2742 125.862 26.4616 125.281 25.4155C124.717 24.3695 124.434 23.1625 124.434 21.7947C124.434 20.4107 124.717 19.1956 125.281 18.1497C125.846 17.1036 126.636 16.2989 127.652 15.7358C128.669 15.1725 129.838 14.8909 131.161 14.8909C132.435 14.8909 133.572 15.1645 134.572 15.7117C135.588 16.2588 136.371 17.0392 136.919 18.0531C137.484 19.0509 137.766 20.2015 137.766 21.505ZM134.258 20.5395C134.242 19.6705 133.927 18.9784 133.314 18.4635C132.701 17.9325 131.951 17.6669 131.064 17.6669C130.225 17.6669 129.515 17.9244 128.935 18.4393C128.37 18.9382 128.023 19.6383 127.894 20.5395H134.258Z" fill="white"/>
<path d="M138.883 21.7464C138.883 20.3946 139.15 19.1956 139.682 18.1497C140.23 17.1036 140.964 16.2989 141.883 15.7358C142.819 15.1725 143.86 14.8909 145.004 14.8909C146.005 14.8909 146.876 15.0921 147.618 15.4943C148.376 15.8967 148.98 16.4036 149.433 17.0151V15.1081H152.844V28.4812H149.433V26.526C148.996 27.1535 148.392 27.6766 147.618 28.095C146.86 28.4972 145.98 28.6984 144.98 28.6984C143.852 28.6984 142.819 28.4088 141.883 27.8294C140.964 27.2501 140.23 26.4374 139.682 25.3914C139.15 24.3293 138.883 23.1143 138.883 21.7464ZM149.433 21.7947C149.433 20.9739 149.271 20.2739 148.949 19.6946C148.626 19.0991 148.191 18.6485 147.642 18.3428C147.094 18.0209 146.504 17.86 145.875 17.86C145.247 17.86 144.666 18.0129 144.133 18.3187C143.601 18.6244 143.166 19.075 142.827 19.6705C142.504 20.2498 142.344 20.9417 142.344 21.7464C142.344 22.551 142.504 23.2591 142.827 23.8706C143.166 24.4661 143.601 24.9246 144.133 25.2465C144.682 25.5684 145.263 25.7293 145.875 25.7293C146.504 25.7293 147.094 25.5764 147.642 25.2707C148.191 24.9489 148.626 24.4983 148.949 23.9189C149.271 23.3235 149.433 22.6154 149.433 21.7947Z" fill="white"/>
</svg>
