<svg width="147" height="40" viewBox="0 0 147 40" fill="none" xmlns="http://www.w3.org/2000/svg">
<g clip-path="url(#clip0_74_104)">
<path d="M45.7744 19.23C45.7744 25.77 49.9602 30.33 55.7604 30.33C61.5607 30.33 65.7465 25.77 65.7465 19.23C65.7465 12.69 61.5607 8.13 55.7604 8.13C49.9602 8.13 45.7744 12.69 45.7744 19.23ZM61.9195 19.23C61.9195 23.91 59.3781 26.94 55.7604 26.94C52.1428 26.94 49.6014 23.91 49.6014 19.23C49.6014 14.55 52.1428 11.52 55.7604 11.52C59.3781 11.52 61.9195 14.55 61.9195 19.23Z" fill="white"/>
<path d="M76.5233 30.33C80.9184 30.33 83.4299 26.61 83.4299 22.1399C83.4299 17.67 80.9184 13.95 76.5233 13.95C74.4903 13.95 72.9953 14.76 72.0087 15.93V14.25H68.4209V35.4H72.0087V28.35C72.9953 29.52 74.4903 30.33 76.5233 30.33ZM71.919 21.69C71.919 18.72 73.5933 17.1 75.8058 17.1C78.4069 17.1 79.8122 19.14 79.8122 22.1399C79.8122 25.1399 78.4069 27.18 75.8058 27.18C73.5933 27.18 71.919 25.53 71.919 22.62V21.69Z" fill="white"/>
<path d="M93.1395 30.33C96.2788 30.33 98.7603 28.68 99.8666 25.92L96.787 24.75C96.3087 26.37 94.9035 27.27 93.1395 27.27C90.8373 27.27 89.2228 25.62 88.9537 22.92H99.9563V21.72C99.9563 17.4 97.5345 13.95 92.99 13.95C88.4454 13.95 85.5154 17.52 85.5154 22.14C85.5154 27 88.6547 30.33 93.1395 30.33ZM92.9601 16.98C95.2323 16.98 96.3087 18.48 96.3386 20.22H89.1331C89.6712 18.09 91.1064 16.98 92.9601 16.98Z" fill="white"/>
<path d="M102.648 30H106.236V20.76C106.236 18.51 107.881 17.31 109.495 17.31C111.468 17.31 112.246 18.72 112.246 20.67V30H115.834V19.62C115.834 16.23 113.86 13.95 110.571 13.95C108.538 13.95 107.133 14.88 106.236 15.93V14.25H102.648V30Z" fill="white"/>
<path d="M126.342 8.45996L118.209 30H122.006L123.83 25.08H133.099L134.952 30H138.809L130.677 8.45996H126.342ZM128.434 12.72L131.843 21.72H125.086L128.434 12.72Z" fill="white"/>
<path d="M144.968 8.52246H141.141V30.0625H144.968V8.52246Z" fill="white"/>
<path d="M37.0067 16.3712C37.9111 13.6474 37.5997 10.6637 36.1533 8.18619C33.9782 4.38619 29.6056 2.43119 25.3351 3.35119C23.4353 1.20369 20.7059 -0.0175586 17.8444 -5.86116e-05C13.4792 -0.0100586 9.60613 2.80994 8.2632 6.97744C5.45899 7.55369 3.03847 9.31494 1.62204 11.8112C-0.569255 15.6012 -0.0697042 20.3787 2.85784 23.6287C1.95341 26.3524 2.26486 29.3362 3.71119 31.8137C5.88629 35.6137 10.2589 37.5687 14.5294 36.6487C16.4279 38.7962 19.1586 40.0174 22.0202 39.9987C26.3878 40.0099 30.2621 37.1874 31.6051 33.0162C34.4093 32.4399 36.8298 30.6787 38.2462 28.1824C40.435 24.3924 39.9342 19.6187 37.0079 16.3687L37.0067 16.3712ZM22.0227 37.3849C20.2748 37.3874 18.5819 36.7737 17.2402 35.6499C17.3012 35.6174 17.4071 35.5587 17.4756 35.5162L25.4136 30.9162C25.8197 30.6849 26.0689 30.2512 26.0664 29.7824V18.5537L29.4212 20.4974C29.4574 20.5149 29.481 20.5499 29.486 20.5899V29.8887C29.481 34.0237 26.1436 37.3762 22.0227 37.3849ZM5.97224 30.5062C5.09647 28.9887 4.7813 27.2099 5.08152 25.4837C5.14008 25.5187 5.24347 25.5824 5.31697 25.6249L13.255 30.2249C13.6574 30.4612 14.1557 30.4612 14.5593 30.2249L24.2501 24.6099V28.4974C24.2526 28.5374 24.2339 28.5762 24.2027 28.6012L16.1788 33.2499C12.6047 35.3149 8.04021 34.0874 5.97349 30.5062H5.97224ZM3.8831 13.1199C4.75513 11.5999 6.1317 10.4374 7.77113 9.83369C7.77113 9.90244 7.76739 10.0237 7.76739 10.1087V19.3099C7.7649 19.7774 8.01405 20.2112 8.41892 20.4424L18.1097 26.0562L14.7549 27.9999C14.7212 28.0224 14.6789 28.0262 14.6415 28.0099L6.6163 23.3574C3.04969 21.2849 1.82635 16.7062 3.88186 13.1212L3.8831 13.1199ZM31.4468 19.5562L21.7561 13.9412L25.1109 11.9987C25.1445 11.9762 25.1869 11.9724 25.2243 11.9887L33.2495 16.6374C36.8223 18.7087 38.0469 23.2949 35.9827 26.8799C35.1094 28.3974 33.7341 29.5599 32.0959 30.1649V20.6887C32.0996 20.2212 31.8517 19.7887 31.4481 19.5562H31.4468ZM34.7855 14.5137C34.7269 14.4774 34.6235 14.4149 34.55 14.3724L26.612 9.77244C26.2097 9.53619 25.7114 9.53619 25.3077 9.77244L15.6169 15.3874V11.4999C15.6144 11.4599 15.6331 11.4212 15.6643 11.3962L23.6882 6.75119C27.2623 4.68244 31.8318 5.91369 33.8923 9.50119C34.7631 11.0162 35.0782 12.7899 34.783 14.5137H34.7855ZM13.7931 21.4424L10.4371 19.4987C10.4009 19.4812 10.3773 19.4462 10.3723 19.4062V10.1074C10.3748 5.96744 13.7221 2.61244 17.8481 2.61494C19.5934 2.61494 21.2827 3.22994 22.6244 4.34994C22.5633 4.38244 22.4587 4.44119 22.3889 4.48369L14.4509 9.08369C14.0448 9.31494 13.7956 9.74744 13.7981 10.2162L13.7931 21.4399V21.4424ZM15.6157 17.4999L19.9323 14.9987L24.2488 17.4987V22.4999L19.9323 24.9999L15.6157 22.4999V17.4999Z" fill="white"/>
</g>
<defs>
<clipPath id="clip0_74_104">
<rect width="147" height="40" fill="white"/>
</clipPath>
</defs>
</svg>
