<svg width="161" height="30" viewBox="0 0 161 30" fill="none" xmlns="http://www.w3.org/2000/svg">
<path d="M18.584 3.872V7.94H11.888V29H6.848V7.94H0.152V3.872H18.584ZM27.2869 12.152C27.9349 11.096 28.7749 10.268 29.8069 9.668C30.8629 9.068 32.0629 8.768 33.4069 8.768V14.06H32.0749C30.4909 14.06 29.2909 14.432 28.4749 15.176C27.6829 15.92 27.2869 17.216 27.2869 19.064V29H22.2469V9.056H27.2869V12.152ZM39.3432 6.68C38.4552 6.68 37.7112 6.404 37.1112 5.852C36.5352 5.276 36.2472 4.568 36.2472 3.728C36.2472 2.888 36.5352 2.192 37.1112 1.64C37.7112 1.064 38.4552 0.775999 39.3432 0.775999C40.2312 0.775999 40.9632 1.064 41.5392 1.64C42.1392 2.192 42.4392 2.888 42.4392 3.728C42.4392 4.568 42.1392 5.276 41.5392 5.852C40.9632 6.404 40.2312 6.68 39.3432 6.68ZM41.8272 9.056V29H36.7872V9.056H41.8272ZM57.8084 29L53.7044 22.808L50.0684 29H44.6684L51.1844 18.992L44.5964 9.056H50.2844L54.3524 15.212L58.0244 9.056H63.4244L56.8724 18.992L63.4964 29H57.8084ZM87.7114 29H82.6714L71.2594 11.756V29H66.2194V3.836H71.2594L82.6714 21.116V3.836H87.7114V29ZM111.218 18.596C111.218 19.316 111.17 19.964 111.074 20.54H96.4936C96.6136 21.98 97.1176 23.108 98.0056 23.924C98.8936 24.74 99.9856 25.148 101.282 25.148C103.154 25.148 104.486 24.344 105.278 22.736H110.714C110.138 24.656 109.034 26.24 107.402 27.488C105.77 28.712 103.766 29.324 101.39 29.324C99.4696 29.324 97.7416 28.904 96.2056 28.064C94.6936 27.2 93.5056 25.988 92.6416 24.428C91.8016 22.868 91.3816 21.068 91.3816 19.028C91.3816 16.964 91.8016 15.152 92.6416 13.592C93.4816 12.032 94.6576 10.832 96.1696 9.992C97.6816 9.152 99.4216 8.732 101.39 8.732C103.286 8.732 104.978 9.14 106.466 9.956C107.978 10.772 109.142 11.936 109.958 13.448C110.798 14.936 111.218 16.652 111.218 18.596ZM105.998 17.156C105.974 15.86 105.506 14.828 104.594 14.06C103.682 13.268 102.566 12.872 101.246 12.872C99.9976 12.872 98.9416 13.256 98.0776 14.024C97.2376 14.768 96.7216 15.812 96.5296 17.156H105.998ZM142.53 9.056L136.698 29H131.262L127.626 15.068L123.99 29H118.518L112.65 9.056H117.762L121.29 24.248L125.106 9.056H130.434L134.178 24.212L137.706 9.056H142.53ZM152.875 29.324C151.243 29.324 149.779 29.036 148.483 28.46C147.187 27.86 146.155 27.056 145.387 26.048C144.643 25.04 144.235 23.924 144.163 22.7H149.239C149.335 23.468 149.707 24.104 150.355 24.608C151.027 25.112 151.855 25.364 152.839 25.364C153.799 25.364 154.543 25.172 155.071 24.788C155.623 24.404 155.899 23.912 155.899 23.312C155.899 22.664 155.563 22.184 154.891 21.872C154.243 21.536 153.199 21.176 151.759 20.792C150.271 20.432 149.047 20.06 148.087 19.676C147.151 19.292 146.335 18.704 145.639 17.912C144.967 17.12 144.631 16.052 144.631 14.708C144.631 13.604 144.943 12.596 145.567 11.684C146.215 10.772 147.127 10.052 148.303 9.524C149.503 8.996 150.907 8.732 152.515 8.732C154.891 8.732 156.787 9.332 158.203 10.532C159.619 11.708 160.399 13.304 160.543 15.32H155.719C155.647 14.528 155.311 13.904 154.711 13.448C154.135 12.968 153.355 12.728 152.371 12.728C151.459 12.728 150.751 12.896 150.247 13.232C149.767 13.568 149.527 14.036 149.527 14.636C149.527 15.308 149.863 15.824 150.535 16.184C151.207 16.52 152.251 16.868 153.667 17.228C155.107 17.588 156.295 17.96 157.231 18.344C158.167 18.728 158.971 19.328 159.643 20.144C160.339 20.936 160.699 21.992 160.723 23.312C160.723 24.464 160.399 25.496 159.751 26.408C159.127 27.32 158.215 28.04 157.015 28.568C155.839 29.072 154.459 29.324 152.875 29.324Z" fill="white"/>
</svg>
