<svg width="42" height="42" viewBox="0 0 42 42" fill="none" xmlns="http://www.w3.org/2000/svg">
<rect width="42" height="42" rx="21" fill="url(#paint0_linear_119_1565)"/>
<path d="M30.0354 25.9641C30.2345 26.2969 30.251 26.8262 29.6421 27.2214C29.1443 27.5445 28.6181 27.9166 28.0609 28.3105C25.4817 30.1339 22.2718 32.4036 19.4943 31.3317C16.8443 30.3094 15.9233 30.4666 15.2187 30.6281L13.1129 26.7011C13.701 26.4461 14.9312 25.9226 15.4622 25.7696C15.9932 25.6166 16.8215 25.6709 17.9231 25.9315C19.4355 26.2894 22.223 27.0465 24.0365 28.1228C24.0072 28.2537 23.852 28.5366 23.6003 28.7046C22.9122 29.1639 20.5099 28.6654 19.1574 28.2434C19.1162 28.2301 19.0727 28.2251 19.0295 28.2287C18.9863 28.2323 18.9443 28.2444 18.9058 28.2644C18.8673 28.2843 18.8331 28.3117 18.8053 28.3449C18.7775 28.3781 18.7565 28.4165 18.7435 28.4579C18.7306 28.4993 18.726 28.5428 18.73 28.5859C18.734 28.6291 18.7465 28.671 18.7668 28.7093C18.7871 28.7476 18.8148 28.7815 18.8483 28.8091C18.8817 28.8366 18.9203 28.8572 18.9618 28.8698C19.618 29.0681 20.2842 29.2313 20.9577 29.3588C21.6206 29.4824 22.1826 29.5442 22.6491 29.5442C23.2357 29.5442 23.671 29.4464 23.9648 29.2504C24.3841 28.9706 24.706 28.4496 24.6977 28.0641C24.6977 28.0538 24.696 28.044 24.6954 28.0339C25.3623 27.6739 26.2201 27.1892 27.0532 26.7185C27.7287 26.3369 28.3667 25.9763 28.8947 25.6866C29.4016 25.4082 29.8329 25.6255 30.0354 25.9641ZM10.1979 28.2345C10.1159 28.2782 10.0545 28.3526 10.0273 28.4414C10.0001 28.5303 10.0093 28.6263 10.0529 28.7084L11.803 31.9627C11.8245 32.0035 11.8538 32.0398 11.8892 32.0692C11.9247 32.0987 11.9657 32.1209 12.0098 32.1346C12.0538 32.1482 12.1002 32.153 12.1461 32.1487C12.192 32.1443 12.2367 32.131 12.2774 32.1094L12.8407 31.8101L10.7624 27.9347L10.1979 28.2345ZM14.5345 25.4016C14.4843 25.0969 14.4599 24.7886 14.4616 24.4798C14.4616 23.138 15.1032 21.1947 16.2217 19.1483C17.2326 17.2989 18.4998 15.5921 19.6309 14.5521H22.9143C23.5078 15.1006 24.1487 15.8409 24.783 16.7111L23.9382 17.5977C23.8577 17.6822 23.8037 17.7885 23.7831 17.9034C23.7624 18.0183 23.7759 18.1367 23.8219 18.244C23.8678 18.3512 23.9443 18.4427 24.0417 18.5069C24.1391 18.5712 24.2532 18.6055 24.37 18.6055H26.1931V23.6897C26.1933 23.866 26.2634 24.035 26.388 24.1596C26.5127 24.2843 26.6817 24.3544 26.8579 24.3546H28.1028C28.0923 24.7141 28.0667 25.1457 28.0301 25.4154C27.6282 25.6398 27.1882 25.8884 26.7301 26.1472C25.8582 26.6399 24.9591 27.1478 24.2861 27.5087C22.3968 26.4144 19.6001 25.6539 18.0743 25.2929C16.8446 25.0019 15.9308 24.9516 15.2805 25.139C15.0909 25.1937 14.8258 25.2891 14.5345 25.4016ZM18.3883 21.2593C18.3884 21.8322 18.5583 22.3922 18.8766 22.8685C19.195 23.3448 19.6474 23.716 20.1767 23.9352C20.7059 24.1544 21.2883 24.2117 21.8502 24.0999C22.4121 23.9881 22.9282 23.7122 23.3332 23.3071C23.7383 22.902 24.0141 22.3859 24.1259 21.824C24.2376 21.2621 24.1803 20.6797 23.961 20.1505C23.7418 19.6212 23.3705 19.1688 22.8942 18.8506C22.4178 18.5323 21.8578 18.3624 21.2849 18.3624C20.5169 18.3633 19.7806 18.6688 19.2376 19.2119C18.6946 19.7549 18.3891 20.4913 18.3883 21.2593V21.2593ZM12.3824 26.7274C12.3672 26.6991 12.3414 26.678 12.3106 26.6687C12.2799 26.6594 12.2467 26.6627 12.2183 26.6778L11.2495 27.1974C11.2354 27.2049 11.223 27.2151 11.2129 27.2274C11.2028 27.2397 11.1953 27.2539 11.1907 27.2691C11.1861 27.2844 11.1845 27.3004 11.1861 27.3162C11.1877 27.332 11.1924 27.3474 11.1999 27.3614L13.5601 31.763C13.5753 31.7913 13.6012 31.8124 13.6319 31.8217C13.6627 31.831 13.6958 31.8277 13.7242 31.8126L14.693 31.293C14.707 31.2855 14.7194 31.2753 14.7295 31.2629C14.7395 31.2506 14.7471 31.2364 14.7517 31.2212C14.7563 31.206 14.7578 31.19 14.7562 31.1742C14.7547 31.1583 14.75 31.143 14.7425 31.1289L12.3824 26.7274ZM22.9218 12.6656C23.503 12.1075 23.7669 11.3141 23.7241 10.2469L23.1237 9.84927L22.3855 10.3384C22.3318 10.3739 22.2688 10.3929 22.2043 10.3929C22.1399 10.3929 22.0769 10.3739 22.0232 10.3384L21.2852 9.84965L20.5469 10.3384C20.4932 10.3739 20.4302 10.3929 20.3658 10.3929C20.3014 10.3929 20.2384 10.3739 20.1846 10.3384L19.4463 9.8496L18.8514 10.2434C18.8514 11.0922 19.1159 11.9056 19.6389 12.6657L22.9218 12.6656ZM26.5212 17.9491C26.6082 17.9491 26.6917 17.9837 26.7532 18.0452C26.8148 18.1068 26.8493 18.1902 26.8493 18.2773V23.6897C26.8493 23.692 26.8502 23.6942 26.8518 23.6958C26.8535 23.6974 26.8557 23.6983 26.8579 23.6984H29.6396C29.6407 23.6984 29.6419 23.6981 29.6429 23.6977C29.644 23.6973 29.645 23.6966 29.6458 23.6958C29.6466 23.695 29.6472 23.6941 29.6477 23.693C29.6481 23.692 29.6483 23.6908 29.6483 23.6897V18.2774C29.6483 18.1904 29.6829 18.107 29.7444 18.0454C29.806 17.9839 29.8894 17.9493 29.9764 17.9493H31.9881L28.7842 14.5871C28.7151 14.5146 28.6321 14.4569 28.54 14.4174C28.448 14.378 28.3489 14.3577 28.2488 14.3577C28.1487 14.3577 28.0496 14.378 27.9576 14.4174C27.8655 14.4569 27.7825 14.5146 27.7134 14.5871L24.5096 17.9493L26.5212 17.9491ZM18.6752 13.8959H23.8946C23.9326 13.8963 23.9703 13.8893 24.0055 13.8751C24.0408 13.8609 24.0728 13.8398 24.0999 13.8131C24.1269 13.7864 24.1484 13.7546 24.163 13.7196C24.1777 13.6846 24.1852 13.6469 24.1852 13.609C24.1852 13.571 24.1777 13.5334 24.163 13.4983C24.1484 13.4633 24.1269 13.4315 24.0999 13.4048C24.0728 13.3781 24.0408 13.357 24.0055 13.3428C23.9703 13.3286 23.9326 13.3216 23.8946 13.3221H18.6752C18.5998 13.323 18.5277 13.3537 18.4747 13.4074C18.4217 13.4611 18.392 13.5335 18.392 13.609C18.392 13.6844 18.4217 13.7568 18.4747 13.8105C18.5277 13.8642 18.5998 13.8949 18.6752 13.8959ZM21.6063 22.3521C21.5086 22.4036 21.4007 22.4331 21.2904 22.4386C21.18 22.444 21.0698 22.4253 20.9675 22.3836C20.8409 22.3301 20.7523 22.2439 20.7247 22.1473C20.7132 22.1054 20.6935 22.0663 20.6668 22.0321C20.6401 21.9979 20.6069 21.9694 20.5691 21.9481C20.5313 21.9269 20.4896 21.9133 20.4465 21.9083C20.4034 21.9032 20.3598 21.9067 20.3181 21.9187C20.2764 21.9306 20.2374 21.9507 20.2035 21.9777C20.1696 22.0048 20.1415 22.0383 20.1206 22.0763C20.0997 22.1144 20.0866 22.1562 20.082 22.1993C20.0774 22.2424 20.0814 22.2861 20.0937 22.3276C20.1762 22.6162 20.4016 22.8569 20.712 22.9881C20.791 23.0213 20.873 23.047 20.9568 23.0647V23.3703C20.9568 23.4573 20.9914 23.5408 21.0529 23.6023C21.1145 23.6638 21.1979 23.6984 21.2849 23.6984C21.372 23.6984 21.4554 23.6638 21.517 23.6023C21.5785 23.5408 21.6131 23.4573 21.6131 23.3703V23.0491C21.7186 23.0215 21.8205 22.9817 21.9168 22.9303C22.1162 22.8262 22.2775 22.6615 22.3774 22.4599C22.4773 22.2584 22.5106 22.0303 22.4726 21.8085C22.3785 21.2865 21.9071 20.9179 21.2117 20.8228C21.0043 20.7946 20.8638 20.7022 20.8159 20.5631C20.797 20.507 20.7939 20.4468 20.8069 20.389C20.82 20.3313 20.8486 20.2782 20.8898 20.2356C20.9488 20.1811 21.0183 20.1392 21.0941 20.1123C21.1698 20.0855 21.2502 20.0744 21.3304 20.0796C21.42 20.0828 21.5079 20.1056 21.5878 20.1462C21.6678 20.1868 21.7379 20.2443 21.7934 20.3148C21.8205 20.3484 21.854 20.3763 21.8919 20.397C21.9298 20.4176 21.9714 20.4306 22.0144 20.4351C22.0573 20.4396 22.1007 20.4356 22.1421 20.4234C22.1835 20.4111 22.2221 20.3907 22.2556 20.3635C22.2891 20.3363 22.3169 20.3028 22.3374 20.2648C22.358 20.2268 22.3708 20.1851 22.3752 20.1422C22.3796 20.0992 22.3755 20.0558 22.363 20.0145C22.3506 19.9731 22.3302 19.9346 22.3029 19.9012C22.1275 19.6825 21.885 19.5276 21.6129 19.4606V19.1484C21.6129 19.0614 21.5783 18.9779 21.5168 18.9164C21.4552 18.8549 21.3718 18.8203 21.2847 18.8203C21.1977 18.8203 21.1143 18.8549 21.0527 18.9164C20.9912 18.9779 20.9566 19.0614 20.9566 19.1484V19.4694C20.753 19.5228 20.5673 19.6296 20.4187 19.7788C20.2935 19.9088 20.2065 20.0706 20.1671 20.2467C20.1277 20.4228 20.1374 20.6063 20.1952 20.7772C20.3261 21.1569 20.664 21.4104 21.1225 21.4732C21.5222 21.5279 21.7854 21.6969 21.8266 21.9253C21.8388 22.0105 21.8242 22.0974 21.7847 22.1739C21.7452 22.2504 21.6829 22.3127 21.6063 22.3521V22.3521Z" fill="white"/>
<defs>
<linearGradient id="paint0_linear_119_1565" x1="3.21689e-07" y1="20.6316" x2="42" y2="20.6316" gradientUnits="userSpaceOnUse">
<stop stop-color="#0F8C03"/>
<stop offset="1" stop-color="#21DB10"/>
</linearGradient>
</defs>
</svg>
