<svg width="40" height="41" viewBox="0 0 40 41" fill="none" xmlns="http://www.w3.org/2000/svg">
<path opacity="0.1" fill-rule="evenodd" clip-rule="evenodd" d="M0 20.2969C0 9.25118 8.95431 0.296875 20 0.296875C31.0457 0.296875 40 9.25118 40 20.2969C40 31.3426 31.0457 40.2969 20 40.2969C8.95431 40.2969 0 31.3426 0 20.2969Z" fill="white"/>
<path fill-rule="evenodd" clip-rule="evenodd" d="M10 21.1907C10 26.5767 13.9117 31.0553 19.0278 31.9635V24.1392H16.3194V21.1302H19.0278V18.7225C19.0278 16.0142 20.7728 14.5101 23.241 14.5101C24.0228 14.5101 24.866 14.6302 25.6478 14.7503V17.5191H24.2639C22.9395 17.5191 22.6389 18.1808 22.6389 19.024V21.1302H25.5278L25.0466 24.1392H22.6389V31.9635C27.7549 31.0553 31.6667 26.5776 31.6667 21.1907C31.6667 15.199 26.7917 10.2969 20.8333 10.2969C14.875 10.2969 10 15.199 10 21.1907Z" fill="white"/>
</svg>
