<svg width="60" height="60" viewBox="0 0 60 60" fill="none" xmlns="http://www.w3.org/2000/svg">
<g clip-path="url(#clip0_349_12677)">
<path d="M50.8438 57.3516H46.2734V31.0697L49.2949 28.0457C49.6258 27.7167 49.8882 27.3254 50.0669 26.8944C50.2456 26.4634 50.337 26.0012 50.3359 25.5346V14.1875C50.3359 13.2447 49.9614 12.3406 49.2948 11.674C48.6282 11.0073 47.724 10.6328 46.7812 10.6328H40.6875C40.2835 10.6328 39.896 10.7933 39.6103 11.079C39.3246 11.3647 39.1641 11.7522 39.1641 12.1562V18.7578H34.0859V12.1562C34.0859 11.7522 33.9254 11.3647 33.6397 11.079C33.354 10.7933 32.9665 10.6328 32.5625 10.6328H24.4375C24.0335 10.6328 23.646 10.7933 23.3603 11.079C23.0746 11.3647 22.9141 11.7522 22.9141 12.1562V18.7578H17.8359V12.1562C17.8359 11.7522 17.6754 11.3647 17.3897 11.079C17.104 10.7933 16.7165 10.6328 16.3125 10.6328H10.2188C9.27599 10.6328 8.37184 11.0073 7.70521 11.674C7.03857 12.3406 6.66406 13.2447 6.66406 14.1875V25.5346C6.66297 26.0012 6.75442 26.4634 6.9331 26.8944C7.11179 27.3254 7.37418 27.7167 7.70508 28.0457L10.7266 31.0697V57.3516H6.15625C5.75221 57.3516 5.36472 57.5121 5.07902 57.7978C4.79332 58.0835 4.63281 58.471 4.63281 58.875C4.63281 59.279 4.79332 59.6665 5.07902 59.9522C5.36472 60.2379 5.75221 60.3984 6.15625 60.3984H50.8438C51.2478 60.3984 51.6353 60.2379 51.921 59.9522C52.2067 59.6665 52.3672 59.279 52.3672 58.875C52.3672 58.471 52.2067 58.0835 51.921 57.7978C51.6353 57.5121 51.2478 57.3516 50.8438 57.3516ZM13.3266 29.3609L9.8582 25.8926C9.76377 25.7974 9.71083 25.6687 9.71094 25.5346V14.1875C9.71094 14.0528 9.76444 13.9237 9.85967 13.8284C9.95491 13.7332 10.0841 13.6797 10.2188 13.6797H14.7891V20.2812C14.7891 20.6853 14.9496 21.0728 15.2353 21.3585C15.521 21.6442 15.9085 21.8047 16.3125 21.8047H24.4375C24.8415 21.8047 25.229 21.6442 25.5147 21.3585C25.8004 21.0728 25.9609 20.6853 25.9609 20.2812V13.6797H31.0391V20.2812C31.0391 20.6853 31.1996 21.0728 31.4853 21.3585C31.771 21.6442 32.1585 21.8047 32.5625 21.8047H40.6875C41.0915 21.8047 41.479 21.6442 41.7647 21.3585C42.0504 21.0728 42.2109 20.6853 42.2109 20.2812V13.6797H46.7812C46.9159 13.6797 47.0451 13.7332 47.1403 13.8284C47.2356 13.9237 47.2891 14.0528 47.2891 14.1875V25.5346C47.2892 25.6687 47.2362 25.7974 47.1418 25.8926L43.6734 29.3609C43.3877 29.6464 43.2269 30.0336 43.2266 30.4375V57.3516H36.1172V44.6562C36.1172 42.636 35.3147 40.6986 33.8862 39.2701C32.4577 37.8416 30.5202 37.0391 28.5 37.0391C26.4798 37.0391 24.5423 37.8416 23.1138 39.2701C21.6853 40.6986 20.8828 42.636 20.8828 44.6562V57.3516H13.7734V30.4375C13.7731 30.0336 13.6123 29.6464 13.3266 29.3609ZM33.0703 57.3516H23.9297V44.6562C23.9297 43.4441 24.4112 42.2817 25.2683 41.4246C26.1254 40.5675 27.2879 40.0859 28.5 40.0859C29.7121 40.0859 30.8746 40.5675 31.7317 41.4246C32.5888 42.2817 33.0703 43.4441 33.0703 44.6562V57.3516Z" fill="#F9F9F9"/>
</g>
<defs>
<clipPath id="clip0_349_12677">
<rect width="60" height="60" fill="white"/>
</clipPath>
</defs>
</svg>
