<svg width="40" height="41" viewBox="0 0 40 41" fill="none" xmlns="http://www.w3.org/2000/svg">
<path opacity="0.1" fill-rule="evenodd" clip-rule="evenodd" d="M0 20.2969C0 9.25118 8.95431 0.296875 20 0.296875C31.0457 0.296875 40 9.25118 40 20.2969C40 31.3426 31.0457 40.2969 20 40.2969C8.95431 40.2969 0 31.3426 0 20.2969Z" fill="white"/>
<path fill-rule="evenodd" clip-rule="evenodd" d="M20.001 9.63037C17.1041 9.63037 16.7406 9.64304 15.6028 9.69482C14.4672 9.74682 13.6921 9.9266 13.0139 10.1904C12.3123 10.4628 11.7172 10.8273 11.1243 11.4204C10.5309 12.0133 10.1665 12.6084 9.89316 13.3097C9.62871 13.9882 9.44871 14.7635 9.3976 15.8987C9.34671 17.0364 9.33337 17.4002 9.33337 20.2971C9.33337 23.1941 9.34626 23.5565 9.39782 24.6943C9.45004 25.8299 9.62982 26.605 9.89338 27.2832C10.166 27.9848 10.5305 28.5799 11.1236 29.1728C11.7163 29.7661 12.3114 30.1315 13.0125 30.4039C13.6912 30.6677 14.4665 30.8475 15.6019 30.8995C16.7397 30.9513 17.103 30.9639 19.9997 30.9639C22.8969 30.9639 23.2593 30.9513 24.3971 30.8995C25.5327 30.8475 26.3087 30.6677 26.9873 30.4039C27.6887 30.1315 28.2829 29.7661 28.8756 29.1728C29.4689 28.5799 29.8334 27.9848 30.1067 27.2834C30.3689 26.605 30.5489 25.8297 30.6023 24.6945C30.6534 23.5567 30.6667 23.1941 30.6667 20.2971C30.6667 17.4002 30.6534 17.0367 30.6023 15.8989C30.5489 14.7633 30.3689 13.9882 30.1067 13.31C29.8334 12.6084 29.4689 12.0133 28.8756 11.4204C28.2822 10.8271 27.6889 10.4626 26.9867 10.1904C26.3067 9.9266 25.5311 9.74682 24.3955 9.69482C23.2577 9.64304 22.8955 9.63037 19.9977 9.63037H20.001ZM19.0441 11.5526C19.3281 11.5521 19.645 11.5526 20.001 11.5526C22.849 11.5526 23.1866 11.5628 24.3113 11.6139C25.3513 11.6615 25.9157 11.8353 26.2917 11.9813C26.7895 12.1746 27.1444 12.4057 27.5175 12.779C27.8909 13.1524 28.122 13.5079 28.3158 14.0057C28.4618 14.3813 28.6358 14.9457 28.6831 15.9857C28.7342 17.1102 28.7453 17.448 28.7453 20.2947C28.7453 23.1414 28.7342 23.4792 28.6831 24.6036C28.6355 25.6436 28.4618 26.2081 28.3158 26.5836C28.1224 27.0814 27.8909 27.4359 27.5175 27.809C27.1442 28.1823 26.7897 28.4134 26.2917 28.6068C25.9162 28.7534 25.3513 28.9268 24.3113 28.9743C23.1868 29.0254 22.849 29.0365 20.001 29.0365C17.1527 29.0365 16.8152 29.0254 15.6907 28.9743C14.6507 28.9263 14.0863 28.7525 13.71 28.6065C13.2123 28.4132 12.8567 28.1821 12.4834 27.8088C12.11 27.4354 11.8789 27.0807 11.6851 26.5827C11.5391 26.2072 11.3651 25.6427 11.3178 24.6027C11.2667 23.4783 11.2565 23.1405 11.2565 20.292C11.2565 17.4435 11.2667 17.1075 11.3178 15.9831C11.3653 14.9431 11.5391 14.3786 11.6851 14.0026C11.8785 13.5048 12.11 13.1493 12.4834 12.7759C12.8567 12.4026 13.2123 12.1715 13.71 11.9777C14.086 11.831 14.6507 11.6577 15.6907 11.6099C16.6747 11.5655 17.0561 11.5521 19.0441 11.5499V11.5526ZM25.6948 13.3237C24.9882 13.3237 24.4148 13.8964 24.4148 14.6033C24.4148 15.31 24.9882 15.8833 25.6948 15.8833C26.4015 15.8833 26.9749 15.31 26.9749 14.6033C26.9749 13.8966 26.4015 13.3237 25.6948 13.3237ZM20.0011 14.8193C16.9759 14.8193 14.5232 17.272 14.5232 20.2971C14.5232 23.3223 16.9759 25.7738 20.0011 25.7738C23.0262 25.7738 25.478 23.3223 25.478 20.2971C25.478 17.272 23.0262 14.8193 20.0011 14.8193ZM20.001 16.7415C21.9646 16.7415 23.5566 18.3333 23.5566 20.2971C23.5566 22.2607 21.9646 23.8527 20.001 23.8527C18.0372 23.8527 16.4454 22.2607 16.4454 20.2971C16.4454 18.3333 18.0372 16.7415 20.001 16.7415Z" fill="white"/>
</svg>
