<svg width="40" height="41" viewBox="0 0 40 41" fill="none" xmlns="http://www.w3.org/2000/svg">
<path opacity="0.1" fill-rule="evenodd" clip-rule="evenodd" d="M0 20.2969C0 9.25118 8.9543 0.296875 20 0.296875C31.0457 0.296875 40 9.25118 40 20.2969C40 31.3426 31.0457 40.2969 20 40.2969C8.9543 40.2969 0 31.3426 0 20.2969Z" fill="white"/>
<path fill-rule="evenodd" clip-rule="evenodd" d="M19.401 16.5531L19.443 17.2452L18.7435 17.1604C16.1974 16.8356 13.973 15.734 12.0844 13.8838L11.1611 12.9658L10.9233 13.6437C10.4197 15.1549 10.7414 16.7509 11.7907 17.8242C12.3503 18.4174 12.2243 18.5022 11.2591 18.1491C10.9233 18.0361 10.6295 17.9513 10.6016 17.9937C10.5036 18.0926 10.8394 19.3778 11.1052 19.8862C11.4689 20.5924 12.2104 21.2845 13.0218 21.694L13.7072 22.0189L12.8958 22.033C12.1124 22.033 12.0844 22.0471 12.1684 22.3437C12.4482 23.2617 13.5534 24.2362 14.7844 24.6599L15.6518 24.9565L14.8964 25.4085C13.7772 26.0582 12.4622 26.4254 11.1471 26.4536C10.5176 26.4677 10 26.5242 10 26.5666C10 26.7078 11.7067 27.4987 12.7 27.8095C15.6798 28.7275 19.2191 28.332 21.8772 26.7643C23.7658 25.6486 25.6543 23.4312 26.5357 21.2845C27.0113 20.1405 27.487 18.0502 27.487 17.0474C27.487 16.3978 27.529 16.313 28.3124 15.5362C28.774 15.0843 29.2077 14.59 29.2916 14.4487C29.4315 14.1804 29.4175 14.1804 28.7041 14.4205C27.515 14.8442 27.3471 14.7877 27.9347 14.1522C28.3683 13.7002 28.8859 12.881 28.8859 12.641C28.8859 12.5986 28.6761 12.6692 28.4383 12.7963C28.1865 12.9375 27.6269 13.1494 27.2072 13.2765L26.4518 13.5166L25.7663 13.0505C25.3885 12.7963 24.8569 12.5138 24.5772 12.4291C23.8637 12.2314 22.7725 12.2596 22.129 12.4856C20.3803 13.1211 19.2751 14.7595 19.401 16.5531Z" fill="white"/>
</svg>
