<svg width="40" height="41" viewBox="0 0 40 41" fill="none" xmlns="http://www.w3.org/2000/svg">
<path opacity="0.1" fill-rule="evenodd" clip-rule="evenodd" d="M0 20.2969C0 9.25118 8.95431 0.296875 20 0.296875C31.0457 0.296875 40 9.25118 40 20.2969C40 31.3426 31.0457 40.2969 20 40.2969C8.95431 40.2969 0 31.3426 0 20.2969Z" fill="white"/>
<path fill-rule="evenodd" clip-rule="evenodd" d="M28.3347 13.4212C29.2526 13.673 29.9756 14.4152 30.2209 15.3577C30.6667 17.0659 30.6667 20.63 30.6667 20.63C30.6667 20.63 30.6667 24.1941 30.2209 25.9024C29.9756 26.8449 29.2526 27.587 28.3347 27.8391C26.6712 28.2967 20 28.2967 20 28.2967C20 28.2967 13.3289 28.2967 11.6653 27.8391C10.7473 27.587 10.0244 26.8449 9.77907 25.9024C9.33337 24.1941 9.33337 20.63 9.33337 20.63C9.33337 20.63 9.33337 17.0659 9.77907 15.3577C10.0244 14.4152 10.7473 13.673 11.6653 13.4212C13.3289 12.9634 20 12.9634 20 12.9634C20 12.9634 26.6712 12.9634 28.3347 13.4212ZM18.0001 17.63V24.2966L23.3334 20.9634L18.0001 17.63Z" fill="white"/>
</svg>
