<svg width="56" height="56" viewBox="0 0 56 56" fill="none" xmlns="http://www.w3.org/2000/svg">
<rect x="8.5" y="8.5" width="39" height="39" rx="19.5" fill="#E8EFFF"/>
<rect x="8.5" y="8.5" width="39" height="39" rx="19.5" stroke="white"/>
<path d="M24.6002 29.2243C25.7751 29.2244 26.7164 30.1758 26.7164 31.359V34.1999C26.7164 35.3747 25.7751 36.3325 24.6002 36.3327H21.7828C20.6164 36.3324 19.6667 35.3747 19.6666 34.1999V31.359C19.6666 30.1759 20.6164 29.2245 21.7828 29.2243H24.6002ZM34.2164 29.2243C35.3831 29.2243 36.3336 30.1757 36.3336 31.359V34.1999C36.3336 35.3748 35.3831 36.3327 34.2164 36.3327H31.4C30.2251 36.3327 29.2839 35.3748 29.2838 34.1999V31.359C29.2838 30.1757 30.225 29.2243 31.4 29.2243H34.2164ZM24.6002 19.6667C25.775 19.6668 26.7162 20.6249 26.7164 21.8004V24.6413C26.7164 25.8245 25.7751 26.7749 24.6002 26.7751H21.7828C20.6164 26.7748 19.6666 25.8244 19.6666 24.6413V21.8004C19.6668 20.6249 20.6165 19.6669 21.7828 19.6667H24.6002ZM34.2164 19.6667C35.383 19.6667 36.3334 20.6248 36.3336 21.8004V24.6413C36.3336 25.8246 35.3831 26.7751 34.2164 26.7751H31.4C30.225 26.775 29.2838 25.8246 29.2838 24.6413V21.8004C29.284 20.6248 30.2252 19.6667 31.4 19.6667H34.2164Z" fill="url(#paint0_linear_119_2521)"/>
<defs>
<linearGradient id="paint0_linear_119_2521" x1="19.6666" y1="27.8535" x2="36.3336" y2="27.8535" gradientUnits="userSpaceOnUse">
<stop stop-color="#B72204"/>
<stop offset="1" stop-color="#FC6400"/>
</linearGradient>
</defs>
</svg>
