<svg width="24" height="25" viewBox="0 0 24 25" fill="none" xmlns="http://www.w3.org/2000/svg">
<path d="M10.6829 13.141C10.6829 14.1047 9.99239 14.8889 9.12427 14.8889C8.26974 14.8889 7.56567 14.1047 7.56567 13.141C7.56567 12.1777 8.25614 11.393 9.12427 11.393C9.99896 11.393 10.6965 12.1847 10.6829 13.141ZM16.4452 13.141C16.4452 14.1047 15.7618 14.8889 14.8866 14.8889C14.0321 14.8889 13.328 14.1047 13.328 13.141C13.328 12.1777 14.0185 11.393 14.8866 11.393C15.7618 11.393 16.4588 12.1847 16.4452 13.141Z" fill="#505050"/>
<path d="M12 0.481934C5.37281 0.481934 0 5.85475 0 12.4819C0 19.1091 5.37281 24.4819 12 24.4819C18.6272 24.4819 24 19.1091 24 12.4819C24 5.85475 18.6272 0.481934 12 0.481934ZM20.5739 16.8999C19.0908 17.9893 17.6536 18.6507 16.2366 19.089C16.2141 19.096 16.1897 19.0876 16.1756 19.0683C15.8484 18.6127 15.5513 18.1322 15.2906 17.6279C15.2756 17.5983 15.2892 17.5627 15.3202 17.551C15.7922 17.3724 16.2413 17.1591 16.6734 16.9069C16.7077 16.8868 16.7095 16.838 16.6781 16.8146C16.5867 16.7466 16.4958 16.6749 16.4091 16.6032C16.4012 16.5968 16.3918 16.5927 16.3817 16.5914C16.3717 16.5902 16.3615 16.5918 16.3523 16.5962C13.5473 17.8922 10.4747 17.8922 7.63641 16.5962C7.61812 16.5882 7.59609 16.591 7.58063 16.6041C7.49391 16.6754 7.40297 16.7466 7.31203 16.8146C7.28063 16.838 7.28297 16.8868 7.31719 16.9069C7.74938 17.1544 8.19844 17.3724 8.67 17.5515C8.70094 17.5632 8.71547 17.5983 8.7 17.6279C8.44547 18.1332 8.14781 18.6132 7.81453 19.0688C7.8 19.0876 7.77609 19.096 7.75359 19.089C6.34313 18.6507 4.90641 17.9893 3.42281 16.8999C3.41062 16.8901 3.40172 16.8751 3.40031 16.8591C3.09844 13.6233 3.71438 10.3472 5.9625 6.98818C5.96812 6.97928 5.97609 6.97225 5.98594 6.9685C7.10996 6.45179 8.29651 6.08369 9.51562 5.8735C9.53813 5.87021 9.56063 5.88053 9.57234 5.90021C9.72563 6.17162 9.90047 6.51897 10.0191 6.80303C11.3245 6.60381 12.6506 6.60381 13.9838 6.80303C14.1019 6.52506 14.2706 6.17162 14.423 5.90021C14.4347 5.87959 14.4572 5.86928 14.4797 5.8735C15.6988 6.08414 16.8855 6.45222 18.0098 6.9685C18.0197 6.97225 18.0277 6.97928 18.0323 6.98912C19.9908 9.86959 20.9583 13.119 20.5964 16.8601C20.595 16.876 20.587 16.8901 20.5739 16.8999Z" fill="#505050"/>
</svg>
