<svg width="24" height="24" viewBox="0 0 24 24" fill="none" xmlns="http://www.w3.org/2000/svg">
<g clip-path="url(#clip0_119_1754)">
<path d="M7.69036 10.662H9.52153C9.99849 10.662 10.3865 10.2741 10.3865 9.79711V9.16017C10.3865 8.68327 9.99849 8.29528 9.52153 8.29528H7.69036C7.21345 8.29528 6.82547 8.68327 6.82547 9.16017V9.79711C6.82542 10.2741 7.21345 10.662 7.69036 10.662ZM7.57542 9.16017C7.57542 9.09788 7.62802 9.04528 7.69031 9.04528H9.52149C9.58378 9.04528 9.63642 9.09788 9.63642 9.16017V9.79711C9.63642 9.85941 9.58378 9.91205 9.52149 9.91205H7.69031C7.62802 9.91205 7.57542 9.85941 7.57542 9.79711V9.16017ZM5.49792 15.1666H3.66675C3.18984 15.1666 2.80186 15.5546 2.80186 16.0316V16.6685C2.80186 17.1455 3.18984 17.5335 3.66675 17.5335H5.49792C5.97483 17.5335 6.36281 17.1455 6.36281 16.6685V16.0316C6.36281 15.5546 5.97483 15.1666 5.49792 15.1666ZM5.61281 16.6685C5.61281 16.7308 5.56022 16.7835 5.49792 16.7835H3.66675C3.60445 16.7835 3.55186 16.7308 3.55186 16.6685V16.0316C3.55186 15.9693 3.60445 15.9166 3.66675 15.9166H5.49792C5.56022 15.9166 5.61281 15.9693 5.61281 16.0316V16.6685ZM5.49792 11.7309H3.66675C3.18984 11.7309 2.80186 12.1189 2.80186 12.5959V13.2328C2.80186 13.7098 3.18984 14.0978 3.66675 14.0978H5.49792C5.97483 14.0978 6.36281 13.7098 6.36281 13.2328V12.5959C6.36281 12.1189 5.97483 11.7309 5.49792 11.7309ZM5.61281 13.2328C5.61281 13.2951 5.56022 13.3478 5.49792 13.3478H3.66675C3.60445 13.3478 3.55186 13.2951 3.55186 13.2328V12.5959C3.55186 12.5336 3.60445 12.4809 3.66675 12.4809H5.49792C5.56022 12.4809 5.61281 12.5336 5.61281 12.5959V13.2328ZM10.3865 16.0316C10.3865 15.5546 9.99849 15.1666 9.52153 15.1666H7.69036C7.21345 15.1666 6.82547 15.5546 6.82547 16.0316V16.6685C6.82547 17.1455 7.21345 17.5335 7.69036 17.5335H9.52153C9.99849 17.5335 10.3865 17.1455 10.3865 16.6685V16.0316ZM9.63647 16.6685C9.63647 16.7308 9.58383 16.7835 9.52153 16.7835H7.69036C7.62806 16.7835 7.57547 16.7308 7.57547 16.6685V16.0316C7.57547 15.9693 7.62806 15.9166 7.69036 15.9166H9.52153C9.58383 15.9166 9.63647 15.9693 9.63647 16.0316V16.6685ZM5.49792 8.29528H3.66675C3.18984 8.29528 2.80186 8.68327 2.80186 9.16017V9.79711C2.80186 10.2741 3.18984 10.662 3.66675 10.662H5.49792C5.97483 10.662 6.36281 10.2741 6.36281 9.79711V9.16017C6.36281 8.68327 5.97483 8.29528 5.49792 8.29528ZM5.61281 9.79711C5.61281 9.85941 5.56022 9.91205 5.49792 9.91205H3.66675C3.60445 9.91205 3.55186 9.85941 3.55186 9.79711V9.16017C3.55186 9.09788 3.60445 9.04528 3.66675 9.04528H5.49792C5.56022 9.04528 5.61281 9.09788 5.61281 9.16017V9.79711ZM7.69036 14.0978H9.52153C9.99849 14.0978 10.3865 13.7098 10.3865 13.2328V12.5959C10.3865 12.1189 9.99849 11.7309 9.52153 11.7309H7.69036C7.21345 11.7309 6.82547 12.1189 6.82547 12.5959V13.2328C6.82542 13.7098 7.21345 14.0978 7.69036 14.0978ZM7.57542 12.5959C7.57542 12.5336 7.62802 12.4809 7.69031 12.4809H9.52149C9.58378 12.4809 9.63642 12.5336 9.63642 12.5959V13.2328C9.63642 13.2951 9.58378 13.3478 9.52149 13.3478H7.69031C7.62802 13.3478 7.57542 13.2951 7.57542 13.2328V12.5959ZM23.1467 14.8712C22.4621 13.6693 21.4183 12.3108 19.8834 10.6273C20.3093 10.4048 20.6008 9.95911 20.6008 9.4463C20.6008 8.76295 20.0833 8.19839 19.4197 8.12325L20.3548 7.18809C20.8844 6.65845 20.8844 5.79675 20.3548 5.26716C19.9065 4.81898 19.1937 4.74244 18.66 5.085C18.6197 5.11097 18.5838 5.1142 18.5395 5.09573C18.4953 5.07745 18.4721 5.04966 18.4619 5.00292C18.3321 4.40855 17.8133 3.97167 17.2119 3.9367V2.50627C17.2119 1.1243 16.0876 0 14.7057 0H2.50622C1.12425 0 0 1.1243 0 2.50627V18.0863C0 19.4682 1.12425 20.5925 2.50622 20.5925H10.9493C10.9847 20.658 11.0214 20.7229 11.0593 20.7871C12.2385 22.777 14.5104 24.0001 17.0114 24H17.2578C19.7586 24 22.0307 22.7768 23.2099 20.7871C24.2813 18.9792 24.2583 16.8229 23.1467 14.8712ZM19.8507 9.4463C19.8507 9.76711 19.5897 10.0281 19.2689 10.0281H15.0003C14.6794 10.0281 14.4184 9.76711 14.4184 9.44625C14.4184 9.12544 14.6794 8.86448 15.0003 8.86448H19.2689C19.5897 8.86448 19.8507 9.12553 19.8507 9.4463ZM17.7291 5.163C17.7916 5.44884 17.9823 5.67689 18.2524 5.78869C18.5226 5.90086 18.8189 5.87433 19.0651 5.71622C19.3043 5.5628 19.6238 5.59687 19.8245 5.79759C19.9386 5.91173 20.0014 6.06441 20.0014 6.22767C20.0014 6.39094 19.9386 6.54366 19.8244 6.6578L18.3678 8.11453H15.9015L14.4448 6.6578C14.3306 6.54366 14.2678 6.39094 14.2678 6.22767C14.2678 6.06441 14.3306 5.91173 14.4448 5.79759C14.6454 5.59683 14.9648 5.56256 15.2042 5.71622C15.4504 5.87423 15.7466 5.90062 16.0168 5.78878C16.287 5.67684 16.4777 5.44875 16.5401 5.16291C16.6008 4.88508 16.8509 4.68342 17.1346 4.68338C17.4184 4.68333 17.6684 4.88503 17.7291 5.163ZM13.5435 5.96194H3.21661C3.15431 5.96194 3.10167 5.9093 3.10167 5.847V3.92395C3.10167 3.86166 3.15431 3.80906 3.21661 3.80906H13.9952C14.0575 3.80906 14.1102 3.86166 14.1102 3.92395V5.10637C14.0399 5.15366 13.9744 5.20753 13.9144 5.26725C13.7242 5.45661 13.595 5.69855 13.5435 5.96194ZM2.50622 19.8425C1.53783 19.8425 0.75 19.0546 0.75 18.0863V2.50627C0.75 1.53787 1.53783 0.75 2.50622 0.75H14.7057C15.6741 0.75 16.4619 1.53787 16.4619 2.50627V4.11455C16.1368 4.30162 15.8911 4.61963 15.8074 5.00297C15.7972 5.04975 15.774 5.07755 15.7298 5.09578C15.6856 5.11425 15.6496 5.11088 15.6092 5.08505C15.3808 4.93842 15.1195 4.86919 14.8602 4.87238V3.92395C14.8602 3.44705 14.4722 3.05906 13.9953 3.05906H3.21661C2.73966 3.05906 2.35167 3.44705 2.35167 3.92395V5.84695C2.35167 6.32391 2.73966 6.71189 3.21661 6.71189H13.6062C13.674 6.89067 13.7791 7.05299 13.9144 7.18809L14.8496 8.12325C14.5536 8.15677 14.2868 8.28769 14.0819 8.48316C13.9294 8.36147 13.7402 8.2952 13.5451 8.29523H11.714C11.2371 8.29523 10.8491 8.68322 10.8491 9.16012V9.79706C10.8491 10.274 11.2371 10.662 11.714 10.662H13.5451C13.7651 10.662 13.9656 10.5788 14.1184 10.443C14.1997 10.5151 14.2895 10.577 14.3858 10.6273C14.0355 11.0114 13.711 11.3786 13.4103 11.7309H11.714C11.237 11.7309 10.849 12.1189 10.849 12.5958V13.2328C10.849 13.6723 11.1788 14.0355 11.6038 14.0899C11.4267 14.3583 11.2665 14.6183 11.1225 14.8712C10.1988 16.4929 10.0275 18.2556 10.6103 19.8425H2.50622ZM13.6601 9.16017V9.79711C13.6601 9.85941 13.6074 9.91205 13.5451 9.91205H11.714C11.6517 9.91205 11.5991 9.85941 11.5991 9.79711V9.16017C11.5991 9.09788 11.6517 9.04528 11.714 9.04528H13.5451C13.6074 9.04528 13.6601 9.09788 13.6601 9.16017ZM12.1215 13.3478H11.714C11.6517 13.3478 11.5991 13.2951 11.5991 13.2328V12.5959C11.5991 12.5336 11.6517 12.4809 11.714 12.4809H12.7884C12.5597 12.7649 12.3373 13.0539 12.1215 13.3478ZM22.5647 20.4047C21.5204 22.167 19.4948 23.25 17.2579 23.25H17.0113C14.7745 23.25 12.7487 22.1669 11.7045 20.4047C10.7605 18.812 10.7853 16.9786 11.7741 15.2423C12.4776 14.0072 13.589 12.586 15.2658 10.7782H19.0032C20.6801 12.586 21.7914 14.0073 22.4949 15.2423C23.4838 16.9786 23.5086 18.812 22.5647 20.4047ZM19.1404 18.1803C19.1903 18.5917 19.0799 18.9673 18.821 19.2666C18.5265 19.6072 18.0428 19.8381 17.4914 19.9096V20.2898C17.4914 20.3893 17.4519 20.4846 17.3815 20.555C17.3112 20.6253 17.2158 20.6648 17.1164 20.6648C17.0169 20.6648 16.9215 20.6253 16.8512 20.555C16.7809 20.4846 16.7414 20.3893 16.7414 20.2898V19.904C15.9172 19.7775 15.2789 19.248 15.0916 18.497C15.0675 18.4005 15.0828 18.2984 15.134 18.2132C15.1853 18.1279 15.2682 18.0665 15.3647 18.0424C15.5657 17.9926 15.7692 18.1146 15.8193 18.3156C15.9773 18.9493 16.6001 19.1769 17.112 19.183C17.1169 19.1828 17.1218 19.183 17.1266 19.1831C17.1432 19.1831 17.1591 19.1831 17.175 19.1826C17.626 19.1719 18.0494 19.0122 18.2538 18.776C18.3738 18.6372 18.4203 18.4719 18.3959 18.2708C18.3371 17.7864 17.9252 17.507 17.0603 17.365C15.6178 17.1282 15.2816 16.3909 15.2536 15.814C15.2148 15.0151 15.7723 14.346 16.641 14.149C16.674 14.1415 16.7075 14.1347 16.7414 14.1287V13.7374C16.7414 13.638 16.7809 13.5426 16.8512 13.4723C16.9216 13.4019 17.017 13.3624 17.1164 13.3624C17.2159 13.3624 17.3112 13.4019 17.3816 13.4723C17.4519 13.5426 17.4914 13.638 17.4914 13.7374V14.1255C18.0964 14.226 18.6877 14.5843 18.9864 15.2956C19.0249 15.3873 19.0254 15.4906 18.9878 15.5826C18.9502 15.6747 18.8775 15.7481 18.7858 15.7866C18.6941 15.825 18.5909 15.8255 18.4988 15.7879C18.4068 15.7503 18.3334 15.6777 18.2949 15.586C18.0735 15.0589 17.5994 14.8447 17.1411 14.8434C17.1275 14.8443 17.1139 14.8445 17.1002 14.8439C17.0015 14.8463 16.9032 14.8586 16.8069 14.8804C16.4016 14.9723 15.9774 15.2563 16.0028 15.7777C16.0115 15.9579 16.0348 16.4366 17.1819 16.6249C17.6284 16.6982 18.9875 16.9214 19.1404 18.1803Z" fill="#888888"/>
</g>
<defs>
<clipPath id="clip0_119_1754">
<rect width="24" height="24" fill="white"/>
</clipPath>
</defs>
</svg>
