<svg width="24" height="24" viewBox="0 0 24 24" fill="none" xmlns="http://www.w3.org/2000/svg">
<path d="M12 5.45457C13.5037 5.45457 14.7273 4.23103 14.7273 2.72731C14.7273 1.22359 13.5037 0 12 0C10.4963 0 9.27277 1.22354 9.27277 2.72726C9.27277 4.23097 10.4963 5.45457 12 5.45457ZM12 1.09089C12.9024 1.09089 13.6364 1.8249 13.6364 2.72726C13.6364 3.62961 12.9024 4.36362 12 4.36362C11.0977 4.36362 10.3637 3.62961 10.3637 2.72726C10.3637 1.8249 11.0977 1.09089 12 1.09089ZM8.2596 10.9091H15.7404C16.385 10.9091 16.9091 10.3434 16.9091 9.6477V9.29828C16.9091 8.38688 16.4579 7.55433 15.7308 7.1255C14.8599 6.61199 13.5059 5.99999 12 5.99999C10.4942 5.99999 9.14012 6.61204 8.26922 7.1255C7.54211 7.55428 7.09093 8.38688 7.09093 9.29828V9.6477C7.09093 10.3434 7.61508 10.9091 8.2596 10.9091ZM8.18182 9.29828C8.18182 8.77894 8.43377 8.29525 8.82318 8.06513C9.57693 7.62086 10.7403 7.09088 12 7.09088C13.2598 7.09088 14.4231 7.62091 15.1769 8.06513C15.5663 8.29525 15.8182 8.77889 15.8182 9.29828V9.6477C15.8182 9.76117 15.7538 9.81814 15.7404 9.81814H8.2596C8.24631 9.81814 8.18182 9.76112 8.18182 9.6477V9.29828ZM4.90909 18.5455C6.41281 18.5455 7.63635 17.3219 7.63635 15.8182C7.63635 14.3145 6.41281 13.0909 4.90909 13.0909C3.40538 13.0909 2.18184 14.3145 2.18184 15.8182C2.18184 17.3219 3.40538 18.5455 4.90909 18.5455ZM4.90909 14.1818C5.81145 14.1818 6.54546 14.9158 6.54546 15.8182C6.54546 16.7205 5.81145 17.4545 4.90909 17.4545C4.00674 17.4545 3.27273 16.7205 3.27273 15.8182C3.27273 14.9158 4.00674 14.1818 4.90909 14.1818ZM8.6399 20.2165C7.769 19.703 6.41496 19.091 4.90909 19.091C3.40323 19.091 2.04919 19.703 1.17828 20.2165C0.451176 20.6452 0 21.4778 0 22.3892V22.7386C0 23.4343 0.524148 24 1.16867 24H8.64952C9.29404 24 9.81819 23.4343 9.81819 22.7386V22.3892C9.81819 21.4778 9.36701 20.6452 8.6399 20.2165ZM8.7273 22.7387C8.7273 22.8521 8.66286 22.9091 8.64952 22.9091H1.16867C1.15538 22.9091 1.09089 22.8521 1.09089 22.7387V22.3893C1.09089 21.8699 1.34284 21.3862 1.73225 21.1561C2.486 20.7118 3.64935 20.1818 4.90909 20.1818C6.16884 20.1818 7.33219 20.7119 8.08594 21.1561C8.47535 21.3862 8.7273 21.8699 8.7273 22.3893V22.7387ZM19.0909 18.5455C20.5946 18.5455 21.8182 17.3219 21.8182 15.8182C21.8182 14.3145 20.5947 13.0909 19.0909 13.0909C17.5871 13.0909 16.3636 14.3145 16.3636 15.8182C16.3636 17.3219 17.5872 18.5455 19.0909 18.5455ZM19.0909 14.1818C19.9933 14.1818 20.7273 14.9158 20.7273 15.8182C20.7273 16.7205 19.9933 17.4545 19.0909 17.4545C18.1886 17.4545 17.4545 16.7205 17.4545 15.8182C17.4545 14.9158 18.1886 14.1818 19.0909 14.1818ZM22.8218 20.2165C21.9509 19.703 20.5968 19.091 19.091 19.091C17.5851 19.091 16.2311 19.703 15.3601 20.2165C14.633 20.6452 14.1819 21.4779 14.1819 22.3893V22.7387C14.1819 23.4343 14.706 24.0001 15.3505 24.0001H22.8314C23.4759 24.0001 24.0001 23.4343 24.0001 22.7387V22.3893C24 21.4778 23.5488 20.6452 22.8218 20.2165ZM22.9091 22.7387C22.9091 22.8521 22.8447 22.9091 22.8313 22.9091H15.3505C15.3372 22.9091 15.2727 22.8521 15.2727 22.7387V22.3893C15.2727 21.8699 15.5247 21.3862 15.9141 21.1561C16.6678 20.7118 17.8312 20.1818 19.0909 20.1818C20.3507 20.1818 21.514 20.7119 22.2678 21.1561C22.6572 21.3862 22.9091 21.8699 22.9091 22.3893V22.7387ZM14.7268 18.5455C14.8871 18.5455 15.0453 18.4752 15.1535 18.3409C15.3415 18.1055 15.3031 17.7624 15.0682 17.5739L12.5455 15.5557V12.5455C12.5455 12.244 12.3015 12 12 12C11.6985 12 11.4546 12.2439 11.4546 12.5454V15.5561L8.93184 17.5738C8.69692 17.7624 8.65857 18.1055 8.8466 18.3409C8.95475 18.4751 9.11292 18.5454 9.27328 18.5454C9.39258 18.5454 9.51301 18.5066 9.61364 18.4261L12 16.5171L14.3864 18.4261C14.4829 18.5035 14.603 18.5456 14.7268 18.5455Z" fill="#888888"/>
</svg>
