<svg width="24" height="24" viewBox="0 0 24 24" fill="none" xmlns="http://www.w3.org/2000/svg">
<path d="M12 23C9.82441 23 7.69767 22.3549 5.88873 21.1462C4.07979 19.9375 2.66989 18.2195 1.83733 16.2095C1.00477 14.1995 0.786929 11.9878 1.21137 9.85401C1.6358 7.72022 2.68345 5.76021 4.22183 4.22183C5.76021 2.68345 7.72022 1.6358 9.85401 1.21137C11.9878 0.786929 14.1995 1.00477 16.2095 1.83733C18.2195 2.66989 19.9375 4.07979 21.1462 5.88873C22.3549 7.69767 23 9.82441 23 12C23 14.9174 21.8411 17.7153 19.7782 19.7782C17.7153 21.8411 14.9174 23 12 23ZM12 3.00001C10.22 3.00001 8.47992 3.52785 6.99987 4.51678C5.51983 5.50571 4.36628 6.91132 3.68509 8.55585C3.0039 10.2004 2.82567 12.01 3.17294 13.7558C3.5202 15.5016 4.37737 17.1053 5.63604 18.364C6.89472 19.6226 8.49836 20.4798 10.2442 20.8271C11.99 21.1743 13.7996 20.9961 15.4442 20.3149C17.0887 19.6337 18.4943 18.4802 19.4832 17.0001C20.4722 15.5201 21 13.78 21 12C21 9.61306 20.0518 7.32387 18.364 5.63604C16.6761 3.94822 14.387 3.00001 12 3.00001ZM17.92 10.38C17.9966 10.1979 18.0175 9.99718 17.9801 9.80319C17.9428 9.6092 17.8488 9.43063 17.71 9.29L15.71 7.29C15.6168 7.19677 15.5061 7.12281 15.3843 7.07235C15.2624 7.02188 15.1319 6.99591 15 6.99591C14.7337 6.99591 14.4783 7.1017 14.29 7.29C14.1968 7.38324 14.1228 7.49393 14.0723 7.61576C14.0219 7.73758 13.9959 7.86815 13.9959 8C13.9959 8.26631 14.1017 8.5217 14.29 8.71L14.59 9H7C6.73479 9 6.48043 9.10536 6.2929 9.2929C6.10536 9.48043 6 9.73479 6 10C6 10.2652 6.10536 10.5196 6.2929 10.7071C6.48043 10.8946 6.73479 11 7 11H17C17.1974 10.999 17.3901 10.9396 17.5539 10.8293C17.7176 10.719 17.845 10.5626 17.92 10.38ZM9.71 16.71C9.80373 16.617 9.87813 16.5064 9.9289 16.3846C9.97966 16.2627 10.0058 16.132 10.0058 16C10.0058 15.868 9.97966 15.7373 9.9289 15.6154C9.87813 15.4936 9.80373 15.383 9.71 15.29L9.41 15H17C17.2652 15 17.5196 14.8946 17.7071 14.7071C17.8946 14.5196 18 14.2652 18 14C18 13.7348 17.8946 13.4804 17.7071 13.2929C17.5196 13.1054 17.2652 13 17 13H7C6.80258 13.001 6.60986 13.0604 6.44614 13.1707C6.28242 13.2811 6.15503 13.4374 6.08 13.62C6.00343 13.8021 5.9825 14.0028 6.01988 14.1968C6.05725 14.3908 6.15125 14.5694 6.29 14.71L8.29 16.71C8.38297 16.8037 8.49357 16.8781 8.61543 16.9289C8.73729 16.9797 8.86799 17.0058 9 17.0058C9.13202 17.0058 9.26272 16.9797 9.38458 16.9289C9.50644 16.8781 9.61704 16.8037 9.71 16.71Z" fill="#888888"/>
</svg>
