<svg width="24" height="25" viewBox="0 0 24 25" fill="none" xmlns="http://www.w3.org/2000/svg">
<path d="M12 24.4819C18.629 24.4819 24 19.1109 24 12.4819C24 5.85293 18.629 0.481934 12 0.481934C5.371 0.481934 0 5.85293 0 12.4819C0 19.1109 5.371 24.4819 12 24.4819ZM5.491 12.2219L17.061 7.76093C17.598 7.56693 18.067 7.89193 17.893 8.70393L17.894 8.70293L15.924 17.9839C15.778 18.6419 15.387 18.8019 14.84 18.4919L11.84 16.2809L10.393 17.6749C10.233 17.8349 10.098 17.9699 9.788 17.9699L10.001 14.9169L15.561 9.89393C15.803 9.68093 15.507 9.56093 15.188 9.77293L8.317 14.0989L5.355 13.1749C4.712 12.9709 4.698 12.5319 5.491 12.2219Z" fill="#505050"/>
</svg>
